<?xml version="1.0" encoding="utf-8"?>
<!-- Generator: Adobe Illustrator 20.1.0, SVG Export Plug-In . SVG Version: 6.00 Build 0)  -->
<svg version="1.1" id="Layer_1" xmlns="http://www.w3.org/2000/svg" xmlns:xlink="http://www.w3.org/1999/xlink" x="0px" y="0px"
	 viewBox="0 0 492.9 296.9" style="enable-background:new 0 0 492.9 296.9;" xml:space="preserve">
<style type="text/css">
	.st0{fill:#33434F;}
	.st1{fill:#FFFFFF;}
	.st2{fill:#EDEEF1;}
	.st3{fill:#AAAAAA;}
	.st4{fill:#FF9F48;}
	.st5{fill:#BFBFBF;}
	.st6{fill:#EFEFEF;}
	.st7{fill:#C9C9C9;}
	.st8{fill:#B7B7B7;}
	.st9{fill:#A8A8A8;}
	.st10{fill:#FFE048;}
	.st11{fill:#FBC14A;}
	.st12{fill:#F7AD4B;}
	.st13{fill:#2C2E3A;}
	.st14{fill:#F9C6A0;}
	.st15{fill:#474042;}
	.st16{fill:#E5E5E5;}
	.st17{fill:#E8B58B;}
	.st18{fill:#333231;}
	.st19{fill:#FCFFB6;}
	.st20{fill:#F4FF8F;}
	.st21{fill:#E9FF64;}
	.st22{fill:#DDFF4D;}
	.st23{fill:#BDFFCD;}
	.st24{fill:#97FFB4;}
	.st25{fill:#6CFF99;}
	.st26{fill:#50FF8A;}
	.st27{fill:#C2D3FF;}
	.st28{fill:#9FB6FF;}
	.st29{fill:#7D96FF;}
	.st30{fill:#4D67FF;}
	.st31{fill:#FFB0B0;}
	.st32{fill:#FF9292;}
	.st33{fill:#FF6969;}
	.st34{fill:#FF4D4D;}
	.st35{fill:#F2ABFF;}
	.st36{fill:#E98DFF;}
	.st37{fill:#E36EFF;}
	.st38{fill:#DC4AFF;}
	.st39{fill:#FCFFFF;}
	.st40{fill:#CCCCCC;}
	.st41{fill:none;}
	.st42{fill:#303030;}
	.st43{fill:#5D727F;}
</style>
<g>
	<g>
		<line class="st0" x1="-290.8" y1="145.2" x2="-290.8" y2="-38.1"/>
		<line class="st1" x1="-290.8" y1="145.2" x2="-290.8" y2="127"/>
	</g>
</g>
<g>
	<g>
		<g>
			<path class="st2" d="M484.6,227.9V10.4c0-3.2-2.8-5.8-6.3-5.8H155.6c-3.4,0-6.3,2.6-6.3,5.8v217.5H484.6z"/>
			<g>
				<g>
					<circle class="st3" cx="160.4" cy="12.7" r="3.5"/>
					<circle class="st3" cx="183.9" cy="12.7" r="3.5"/>
				</g>
				<circle class="st3" cx="172.2" cy="12.7" r="3.5"/>
			</g>
			<path class="st1" d="M445.9,24.2h-245c-1.4,0-2.5-1.1-2.5-2.5v-3c0-1.4,1.1-2.5,2.5-2.5h245c1.4,0,2.5,1.1,2.5,2.5v3
				C448.4,23.1,447.3,24.2,445.9,24.2z"/>
			<rect x="156.7" y="32.2" class="st1" width="320.5" height="189.4"/>
			<path class="st2" d="M472.9,162.2L472.9,162.2c-1.5,0-2.8-1.2-2.8-2.8V36.9c0-1.5,1.2-2.8,2.8-2.8l0,0c1.5,0,2.8,1.2,2.8,2.8
				v122.5C475.7,161,474.4,162.2,472.9,162.2z"/>
			<g>
				
					<rect x="411.4" y="74.2" transform="matrix(-1 -1.224647e-16 1.224647e-16 -1 877.3398 202.8831)" class="st2" width="54.5" height="54.5"/>
				
					<rect x="275" y="74.2" transform="matrix(-1 -1.224647e-16 1.224647e-16 -1 604.4296 202.8831)" class="st2" width="54.5" height="54.5"/>
			</g>
			
				<rect x="343.2" y="74.2" transform="matrix(-1 -1.224647e-16 1.224647e-16 -1 740.8848 274.0413)" class="st2" width="54.5" height="125.7"/>
			<g>
				
					<rect x="411.4" y="145.7" transform="matrix(-1 -1.224647e-16 1.224647e-16 -1 877.3398 345.8831)" class="st2" width="54.5" height="54.5"/>
				
					<rect x="275" y="145.7" transform="matrix(-1 -1.224647e-16 1.224647e-16 -1 604.4296 345.8831)" class="st2" width="54.5" height="54.5"/>
			</g>
			<g>
				
					<rect x="172.2" y="74.2" transform="matrix(-1 -1.224647e-16 1.224647e-16 -1 409.8398 150.8831)" class="st2" width="65.5" height="2.5"/>
				<rect x="172.2" y="83.8" class="st2" width="65.5" height="2.5"/>
				<rect x="172.2" y="93.5" class="st2" width="65.5" height="2.5"/>
				<rect x="172.2" y="103.1" class="st2" width="65.5" height="2.5"/>
				<rect x="172.2" y="112.7" class="st2" width="65.5" height="2.5"/>
				<rect x="172.2" y="122.4" class="st2" width="65.5" height="2.5"/>
				<rect x="172.2" y="132" class="st2" width="65.5" height="2.5"/>
				<rect x="172.2" y="141.7" class="st2" width="65.5" height="2.5"/>
				<rect x="172.2" y="151.3" class="st2" width="65.5" height="2.5"/>
				
					<rect x="172.2" y="160.9" transform="matrix(-1 -1.224647e-16 1.224647e-16 -1 409.8398 324.3831)" class="st2" width="65.5" height="2.5"/>
			</g>
		</g>
		<g>
			<rect x="424.9" y="45.2" class="st2" width="39.6" height="9.9"/>
			<rect x="173.7" y="45.2" class="st2" width="211.8" height="9.9"/>
			<rect x="455.6" y="45.2" class="st4" width="10.4" height="9.9"/>
			<path class="st1" d="M463.3,50.5c0.8-0.8,0.8-2.1,0-2.9c-0.8-0.8-2.1-0.8-2.9,0c-0.7,0.7-0.8,1.7-0.3,2.5l-1.9,1.9
				c-0.2,0.2-0.2,0.5,0,0.6l0,0c0.2,0.2,0.5,0.2,0.6,0l1.9-1.9C461.6,51.2,462.6,51.1,463.3,50.5z M460.9,50c-0.5-0.5-0.5-1.4,0-1.9
				c0.5-0.5,1.4-0.5,1.9,0c0.5,0.5,0.5,1.4,0,1.9C462.3,50.5,461.5,50.5,460.9,50z"/>
		</g>
	</g>
	<g>
		<g>
			<g>
				<path class="st0" d="M299.1,117.2l-54.7-0.2l-54.7-0.2c-2.6,0-4.8,2.1-4.8,4.7l-0.5,132.4c0,2.6,2.1,4.8,4.7,4.8l54.7,0.2
					l54.7,0.2c2.6,0,4.8-2.1,4.8-4.7l0.5-132.4C303.8,119.4,301.7,117.3,299.1,117.2z"/>
				
					<rect x="192" y="124.4" transform="matrix(1 4.112697e-03 -4.112697e-03 1 0.7751 -1.0022)" class="st1" width="104.2" height="127.2"/>
				
					<rect x="191.7" y="245.2" transform="matrix(1 4.103332e-03 -4.103332e-03 1 1.0213 -0.9984)" class="st5" width="104.2" height="6.3"/>
			</g>
		</g>
		<g>
			<g>
				<g>
					
						<rect x="223.8" y="106" transform="matrix(1 4.075005e-03 -4.075005e-03 1 0.466 -0.9529)" class="st6" width="20.6" height="15.7"/>
					
						<rect x="244.4" y="106.1" transform="matrix(-1 -4.118862e-03 4.118862e-03 -1 508.9005 228.9644)" class="st7" width="20.6" height="15.7"/>
				</g>
				<g>
					
						<rect x="223.8" y="106" transform="matrix(1 4.075005e-03 -4.075005e-03 1 0.466 -0.9529)" class="st6" width="20.6" height="15.7"/>
					
						<rect x="244.4" y="106.1" transform="matrix(-1 -4.118862e-03 4.118862e-03 -1 508.9005 228.9644)" class="st7" width="20.6" height="15.7"/>
				</g>
			</g>
			<g>
				
					<ellipse transform="matrix(3.919617e-03 -1 1 3.919617e-03 117.5186 334.3042)" class="st8" cx="226.6" cy="108.2" rx="1.1" ry="1.1"/>
				
					<ellipse transform="matrix(3.917872e-03 -1 1 3.917872e-03 152.9032 370.1204)" class="st9" cx="262.2" cy="108.3" rx="1.1" ry="1.1"/>
			</g>
		</g>
	</g>
	<g>
		<g>
			<g>
				
					<rect x="222.7" y="132.3" transform="matrix(0.968 0.2511 -0.2511 0.968 52.0324 -50.6082)" class="st10" width="3.4" height="92.6"/>
				
					<rect x="225.9" y="133.2" transform="matrix(-0.968 -0.2511 0.2511 -0.968 402.8313 410.2827)" class="st11" width="3.4" height="92.6"/>
				
					<rect x="229.2" y="134" transform="matrix(0.968 0.2508 -0.2508 0.968 52.5967 -52.1344)" class="st12" width="3.4" height="92.6"/>
			</g>
			<g>
				
					<rect x="222.7" y="132.3" transform="matrix(0.968 0.2511 -0.2511 0.968 52.0324 -50.6082)" class="st10" width="3.4" height="92.6"/>
				
					<rect x="225.9" y="133.2" transform="matrix(-0.968 -0.2511 0.2511 -0.968 402.8313 410.2827)" class="st11" width="3.4" height="92.6"/>
				
					<rect x="229.2" y="134" transform="matrix(0.968 0.2508 -0.2508 0.968 52.5967 -52.1344)" class="st12" width="3.4" height="92.6"/>
			</g>
		</g>
		
			<rect x="233.9" y="133.9" transform="matrix(0.968 0.251 -0.251 0.968 41.4439 -55.7422)" class="st13" width="10.5" height="1.4"/>
		<path class="st14" d="M211.1,223l2.1,11.7l6.7-8.1l0,0l0.9-1.1c0.2-0.9-0.3-1.8-1.2-2.1c-0.9-0.2-1.8,0.3-2,1.2
			c0.2-0.9-0.3-1.8-1.2-2.1c-0.9-0.2-1.8,0.3-2,1.2c0.2-0.9-0.3-1.8-1.2-2.1c-0.8-0.2-1.7,0.2-2,1L211.1,223z"/>
		<polygon class="st15" points="213.1,234 213.7,234.1 213.2,234.7 		"/>
	</g>
	<g>
		<g>
			<g>
				<path class="st16" d="M228.6,213l-2.2-0.7c-1.4-0.5-3,0.4-3.5,1.9l-2.5,7.3c-0.5,1.5,0.2,3.1,1.6,3.6l2.2,0.7L228.6,213z"/>
				<path class="st7" d="M228.6,213l2.2,0.7c1.4,0.5,2.1,2.1,1.6,3.6l-2.5,7.3c-0.5,1.5-2.1,2.4-3.5,1.9l-2.2-0.7L228.6,213z"/>
			</g>
			<g>
				<path class="st16" d="M228.6,213l-2.2-0.7c-1.4-0.5-3,0.4-3.5,1.9l-2.5,7.3c-0.5,1.5,0.2,3.1,1.6,3.6l2.2,0.7L228.6,213z"/>
				<path class="st7" d="M228.6,213l2.2,0.7c1.4,0.5,2.1,2.1,1.6,3.6l-2.5,7.3c-0.5,1.5-2.1,2.4-3.5,1.9l-2.2-0.7L228.6,213z"/>
			</g>
		</g>
		<g>
			<g>
				
					<rect x="195.1" y="173.9" transform="matrix(0.3213 -0.947 0.947 0.3213 -5.4129 345.3995)" class="st10" width="86.4" height="5.1"/>
				
					<rect x="199.9" y="175.6" transform="matrix(0.3213 -0.947 0.947 0.3213 -3.6837 351.0956)" class="st12" width="86.4" height="5.1"/>
			</g>
			<g>
				
					<rect x="195.1" y="173.9" transform="matrix(0.3213 -0.947 0.947 0.3213 -5.4129 345.3995)" class="st10" width="86.4" height="5.1"/>
				
					<rect x="199.9" y="175.6" transform="matrix(0.3213 -0.947 0.947 0.3213 -3.6837 351.0956)" class="st12" width="86.4" height="5.1"/>
			</g>
		</g>
		<polygon class="st17" points="249.8,134.5 249.5,135.4 259.2,138.7 259.5,137.8 259.1,124.3 258.7,124.2 258.3,124 		"/>
		<polygon class="st18" points="257.8,124.6 259.2,122.7 259.1,125.1 		"/>
		<g>
			<g>
				
					<rect x="223.2" y="214.7" transform="matrix(0.3211 -0.947 0.947 0.3211 -53.3921 360.035)" class="st0" width="2.4" height="5.1"/>
				
					<rect x="228.1" y="216.3" transform="matrix(0.3211 -0.947 0.947 0.3211 -51.6623 365.7317)" class="st0" width="2.4" height="5.1"/>
			</g>
			<g>
				
					<rect x="223.2" y="214.7" transform="matrix(0.3211 -0.947 0.947 0.3211 -53.3921 360.035)" class="st0" width="2.4" height="5.1"/>
				
					<rect x="228.1" y="216.3" transform="matrix(0.3211 -0.947 0.947 0.3211 -51.6623 365.7317)" class="st0" width="2.4" height="5.1"/>
			</g>
		</g>
	</g>
	<g>
		<g>
			<g>
				<g>
					
						<rect x="122.4" y="99.1" transform="matrix(-0.9935 -0.1136 0.1136 -0.9935 258.076 318.8997)" class="st1" width="31.4" height="106"/>
					<g>
						
							<rect x="130.4" y="104.2" transform="matrix(-0.9935 -0.1136 0.1136 -0.9935 271.1315 243.1462)" class="st19" width="24.3" height="19.3"/>
						
							<rect x="129.9" y="127.2" transform="matrix(0.1136 -0.9935 0.9935 0.1136 -14.7192 262.1985)" class="st20" width="19.3" height="24.3"/>
						
							<rect x="127" y="152.7" transform="matrix(0.1136 -0.9935 0.9935 0.1136 -42.6385 281.9077)" class="st21" width="19.3" height="24.3"/>
						
							<rect x="121.6" y="180.7" transform="matrix(-0.9935 -0.1136 0.1136 -0.9935 245.0149 394.6576)" class="st22" width="24.3" height="19.3"/>
					</g>
				</g>
				<g>
					
						<rect x="105" y="99.4" transform="matrix(-0.9891 0.1474 -0.1474 -0.9891 262.551 285.3322)" class="st1" width="31.4" height="106"/>
					<g>
						
							<rect x="102.9" y="104.7" transform="matrix(-0.9891 0.1475 -0.1475 -0.9891 245.6486 210.4224)" class="st23" width="24.3" height="19.3"/>
						
							<rect x="106.7" y="130.1" transform="matrix(0.9891 -0.1474 0.1474 0.9891 -19.2952 19.0393)" class="st24" width="24.3" height="19.3"/>
						
							<rect x="110.5" y="155.4" transform="matrix(0.9891 -0.1474 0.1474 0.9891 -23.0018 19.8802)" class="st25" width="24.3" height="19.3"/>
						
							<rect x="114.2" y="180.8" transform="matrix(-0.9891 0.1474 -0.1474 -0.9891 279.4584 360.2357)" class="st26" width="24.3" height="19.3"/>
					</g>
				</g>
				<g>
					
						<rect x="88.2" y="104.2" transform="matrix(-0.9172 0.3984 -0.3984 -0.9172 261.9206 259.9586)" class="st1" width="31.4" height="106"/>
					<g>
						
							<rect x="76.5" y="112.2" transform="matrix(-0.9172 0.3984 -0.3984 -0.9172 218.4453 198.365)" class="st27" width="24.3" height="19.3"/>
						
							<rect x="86.7" y="135.8" transform="matrix(0.9172 -0.3984 0.3984 0.9172 -49.7531 51.4162)" class="st28" width="24.3" height="19.3"/>
						
							<rect x="96.9" y="159.3" transform="matrix(0.9172 -0.3984 0.3984 0.9172 -58.287 57.4413)" class="st29" width="24.3" height="19.3"/>
						
							<rect x="107.2" y="182.9" transform="matrix(-0.9172 0.3984 -0.3984 -0.9172 305.4004 321.544)" class="st30" width="24.3" height="19.3"/>
					</g>
				</g>
				<g>
					
						<rect x="73.3" y="113.2" transform="matrix(-0.7829 0.6222 -0.6222 -0.7829 262.083 240.855)" class="st1" width="31.4" height="106"/>
					<g>
						
							<rect x="52.9" y="126.4" transform="matrix(-0.7829 0.6222 -0.6222 -0.7829 200.6203 202.0261)" class="st31" width="24.3" height="19.3"/>
						
							<rect x="68.9" y="146.5" transform="matrix(0.7828 -0.6222 0.6222 0.7828 -79.543 84.322)" class="st32" width="24.3" height="19.3"/>
						
							<rect x="84.9" y="166.6" transform="matrix(0.7828 -0.6222 0.6222 0.7828 -88.5748 98.617)" class="st33" width="24.3" height="19.3"/>
						
							<rect x="100.8" y="186.7" transform="matrix(-0.7828 0.6222 -0.6222 -0.7828 323.5484 279.6783)" class="st34" width="24.3" height="19.3"/>
					</g>
				</g>
				<g>
					
						<rect x="61.2" y="125.7" transform="matrix(-0.5951 0.8036 -0.8036 -0.5951 266.2737 223.2277)" class="st1" width="31.4" height="106"/>
					<g>
						
							<rect x="33.8" y="146.1" transform="matrix(-0.5951 0.8036 -0.8036 -0.5951 198.5069 211.5449)" class="st35" width="24.3" height="19.3"/>
						
							<rect x="54.5" y="161.4" transform="matrix(0.5951 -0.8036 0.8036 0.5951 -110.5012 122.7695)" class="st36" width="24.3" height="19.3"/>
						
							<rect x="75.1" y="176.7" transform="matrix(0.5951 -0.8036 0.8036 0.5951 -114.4249 145.5268)" class="st37" width="24.3" height="19.3"/>
						
							<rect x="95.7" y="192" transform="matrix(-0.5951 0.8036 -0.8036 -0.5951 334.0415 234.9063)" class="st38" width="24.3" height="19.3"/>
					</g>
				</g>
			</g>
			
				<ellipse transform="matrix(0.1136 -0.9935 0.9935 0.1136 -103.0675 322.0623)" class="st39" cx="129" cy="218.8" rx="25.4" ry="25.4"/>
		</g>
		<circle class="st40" cx="129" cy="218.8" r="15.8"/>
		<circle class="st39" cx="129" cy="218.8" r="14.9"/>
		<circle class="st0" cx="129" cy="218.8" r="3.3"/>
	</g>
</g>
<line class="st41" x1="502" y1="-73.7" x2="-298" y2="-73.7"/>
<line class="st41" x1="502" y1="326.3" x2="502" y2="-73.7"/>
<g>
	<path class="st0" d="M5.4,249.4L3.6,242c-0.8-3.5,1.4-7,4.8-7.8l0,0c3.5-0.8,7,1.4,7.8,4.8l1.7,7.4c0.8,3.5-1.4,7-4.8,7.8l0,0
		C9.7,255.1,6.2,252.9,5.4,249.4z"/>
	<polygon class="st42" points="80.2,225.5 85.1,224.3 88.8,228.2 81.3,230 	"/>
	<path class="st0" d="M74.5,237.2c-0.2-2.5,9-6.3,9-6.3l-0.9-3.6l-0.9-3.6c0,0-10,0.7-10.9-1.7l-0.6-2.4l-7.8,1.8l2.4,10l2.4,10
		l7.8-1.8L74.5,237.2z"/>
	
		<rect x="26.7" y="207.8" transform="matrix(0.2295 0.9733 -0.9733 0.2295 260.8542 146.052)" class="st43" width="22.9" height="60"/>
</g>
<g>
	<g>
		<path class="st1" d="M333.8,271c-1.5,0-2.9-0.5-4-1.4c-1.4-1.1-2.3-2.7-2.6-4.4l-2.5-18.4c-0.4-3,1.7-5.7,4.6-6.1
			c1.4-0.2,2.9,0.2,4,1.1c1.1,0.9,1.9,2.1,2.1,3.6l2.2,16.3c0.3,2.2-1.3,4.3-3.5,4.6c-2.2,0.3-4.3-1.3-4.6-3.5l-2-15.3
			c-0.1-0.5,0.3-0.9,0.7-0.9c0.5-0.1,0.9,0.3,0.9,0.7l2,15.3c0.2,1.3,1.4,2.2,2.7,2c1.3-0.2,2.2-1.4,2.1-2.7l-2.2-16.3
			c-0.1-1-0.6-1.9-1.4-2.5c-0.8-0.6-1.8-0.9-2.7-0.7c-2,0.3-3.5,2.1-3.2,4.2l2.5,18.4c0.2,1.3,0.9,2.5,1.9,3.3
			c1.1,0.8,2.4,1.2,3.7,1c1.3-0.2,2.5-0.9,3.3-1.9c0.8-1.1,1.2-2.4,1-3.7l-1.5-11c-0.1-0.5,0.3-0.9,0.7-0.9c0.5-0.1,0.9,0.3,0.9,0.7
			l1.5,11c0.2,1.8-0.2,3.5-1.3,4.9c-1.1,1.4-2.7,2.3-4.4,2.6C334.4,271,334.1,271,333.8,271z"/>
	</g>
</g>
<g>
	<path class="st10" d="M338.7,287.5c-0.9-1.2-1.3-2.6-1.3-4.1c0-1.8,0.7-3.5,2-4.7l13.2-13.1c2.1-2.1,5.5-2.1,7.6,0
		c1,1,1.6,2.4,1.6,3.8c0,1.4-0.6,2.8-1.6,3.8l-11.7,11.5c-1.6,1.6-4.2,1.6-5.8,0c-1.6-1.6-1.6-4.2,0-5.8l11-10.9
		c0.3-0.3,0.9-0.3,1.2,0c0.3,0.3,0.3,0.9,0,1.2l-11,10.9c-0.9,0.9-1,2.4,0,3.4c0.9,0.9,2.4,0.9,3.4,0l11.7-11.5
		c0.7-0.7,1.1-1.6,1.1-2.6c0-1-0.4-1.9-1.1-2.6c-1.4-1.5-3.8-1.5-5.3,0l-13.2,13.1c-1,0.9-1.5,2.2-1.5,3.5c0,1.3,0.5,2.6,1.4,3.5
		c0.9,0.9,2.2,1.5,3.5,1.5c1.3,0,2.6-0.5,3.5-1.4l7.9-7.8c0.3-0.3,0.9-0.3,1.2,0c0.3,0.3,0.3,0.9,0,1.2l-7.9,7.8
		c-1.3,1.3-3,1.9-4.7,1.9c-1.8,0-3.5-0.7-4.7-2C339.1,287.9,338.9,287.7,338.7,287.5z"/>
</g>
<g>
	<path class="st0" d="M372.9,249.9c-0.7,1.3-1.7,2.3-3.1,3c-1.6,0.8-3.4,0.8-5.1,0.2l-17.5-6.3c-2.8-1-4.3-4.1-3.2-6.9
		c0.5-1.4,1.5-2.4,2.8-3.1c1.3-0.6,2.8-0.7,4.1-0.2l15.5,5.6c2.1,0.8,3.2,3.1,2.4,5.2c-0.8,2.1-3.1,3.2-5.2,2.4l-14.6-5.3
		c-0.4-0.2-0.7-0.6-0.5-1.1c0.2-0.4,0.6-0.7,1.1-0.5l14.6,5.3c1.2,0.4,2.6-0.2,3.1-1.4c0.4-1.2-0.2-2.6-1.4-3.1l-15.5-5.6
		c-0.9-0.3-1.9-0.3-2.8,0.1c-0.9,0.4-1.6,1.2-1.9,2.1c-0.7,1.9,0.3,4.1,2.2,4.8l17.5,6.3c1.3,0.5,2.6,0.4,3.8-0.2
		c1.2-0.6,2.1-1.6,2.6-2.8c0.5-1.3,0.4-2.6-0.2-3.8c-0.6-1.2-1.6-2.1-2.8-2.6l-10.5-3.8c-0.4-0.2-0.7-0.6-0.5-1.1
		c0.2-0.4,0.6-0.7,1.1-0.5l10.5,3.8c1.7,0.6,3,1.8,3.8,3.4c0.8,1.6,0.8,3.4,0.2,5.1C373.1,249.4,373,249.6,372.9,249.9z"/>
</g>
</svg>
