<?xml version="1.0" encoding="utf-8"?>
<!-- Generator: Adobe Illustrator 20.1.0, SVG Export Plug-In . SVG Version: 6.00 Build 0)  -->
<svg version="1.1" id="Layer_1" xmlns="http://www.w3.org/2000/svg" xmlns:xlink="http://www.w3.org/1999/xlink" x="0px" y="0px"
	 viewBox="0 0 499 480" style="enable-background:new 0 0 499 480;" xml:space="preserve">
<style type="text/css">
	.st0{fill:#FEFEFE;}
	.st1{fill-rule:evenodd;clip-rule:evenodd;fill:#A69D8D;}
	.st2{fill-rule:evenodd;clip-rule:evenodd;fill:#4B4B4D;}
	.st3{fill-rule:evenodd;clip-rule:evenodd;fill:#FEFEFE;}
	.st4{fill-rule:evenodd;clip-rule:evenodd;fill:#C5BAA6;}
	.st5{fill-rule:evenodd;clip-rule:evenodd;fill:#D2D3D5;}
	.st6{fill-rule:evenodd;clip-rule:evenodd;fill:#A45E4D;}
	.st7{fill-rule:evenodd;clip-rule:evenodd;fill:#BDBFC1;}
	.st8{fill-rule:evenodd;clip-rule:evenodd;fill:#EF5036;}
	.st9{fill-rule:evenodd;clip-rule:evenodd;fill:#A9ABAE;}
	.st10{fill-rule:evenodd;clip-rule:evenodd;fill:#5CC6D0;}
	.st11{fill-rule:evenodd;clip-rule:evenodd;fill:#E6E7E8;}
	.st12{fill-rule:evenodd;clip-rule:evenodd;fill:#DF3438;}
	.st13{fill-rule:evenodd;clip-rule:evenodd;fill:#ED3237;}
	.st14{fill-rule:evenodd;clip-rule:evenodd;fill:#C1C3C5;}
	.st15{fill:#373435;}
</style>
<g>
	<path class="st0" d="M303.7,421.5l-0.6-43.1c0.4-9.1,5.5-13.6,15.6-14h6.3c6.9,0,10.5-3.9,10.5-7.7c0-3.6-3-7.2-10-7.4l-56.9,0.2
		l0-1.4l56.9-0.2c7.9,0.1,11.4,4.6,11.4,8.8c0,4.5-4.2,9.1-11.9,9.1h-6.3c-9.4,0.3-13.9,4.4-14.3,12.6l0.6,43L303.7,421.5z"/>
</g>
<g>
	<rect x="94.4" y="42.4" class="st1" width="131.5" height="98.6"/>
</g>
<g>
	<polygon class="st2" points="215.6,48.3 226.2,42.4 226,51.8 	"/>
</g>
<g>
	<rect x="110.4" y="8.8" class="st3" width="99.5" height="92"/>
</g>
<g>
	<rect x="190.6" y="14.3" class="st2" width="4.9" height="46.9"/>
</g>
<g>
	<rect x="124.8" y="14.3" class="st2" width="4.9" height="46.9"/>
</g>
<g>
	<rect x="183.4" y="14.3" class="st2" width="3.6" height="46.9"/>
</g>
<g>
	<rect x="133.2" y="14.3" class="st2" width="3.6" height="46.9"/>
</g>
<g>
	<rect x="175.5" y="14.3" class="st2" width="3.1" height="46.9"/>
</g>
<g>
	<rect x="141.7" y="14.3" class="st2" width="3.1" height="46.9"/>
</g>
<g>
	<rect x="167.5" y="14.3" class="st2" width="2.5" height="46.9"/>
</g>
<g>
	<rect x="150.2" y="14.3" class="st2" width="2.5" height="46.9"/>
</g>
<g>
	<rect x="159.5" y="14.3" class="st2" width="1.9" height="46.9"/>
</g>
<g>
	<rect x="158.7" y="14.3" class="st2" width="1.9" height="46.9"/>
</g>
<g>
	<rect x="151.6" y="14.3" class="st2" width="1.4" height="46.9"/>
</g>
<g>
	<rect x="167.3" y="14.3" class="st2" width="1.4" height="46.9"/>
</g>
<g>
	<rect x="143.6" y="14.3" class="st2" width="0.8" height="46.9"/>
</g>
<g>
	<rect x="175.8" y="14.3" class="st2" width="0.8" height="46.9"/>
</g>
<g>
	<rect x="135.6" y="14.3" class="st2" width="0.3" height="46.9"/>
</g>
<g>
	<rect x="184.3" y="14.3" class="st2" width="0.3" height="46.9"/>
</g>
<g>
	<path class="st3" d="M237.3,54.4c-1.4,0-21.7-6.2-21.7-6.2l0,6.7L237.3,54.4z"/>
</g>
<g>
	<polygon class="st2" points="104.8,48.3 94.1,42.4 94.3,51.8 	"/>
</g>
<g>
	<path class="st3" d="M83.1,54.4c1.4,0,21.7-6.2,21.7-6.2l0,6.7L83.1,54.4z"/>
</g>
<g>
	<rect x="83.1" y="54.3" class="st4" width="154.1" height="180.7"/>
</g>
<g>
	<path class="st0" d="M21.2,234.7c-5.2,0-9.4-4.2-9.4-9.4c0-5.2,4.2-9.4,9.4-9.4c5.2,0,9.4,4.2,9.4,9.4
		C30.6,230.5,26.4,234.7,21.2,234.7z M21.2,217.3c-4.4,0-8,3.6-8,8c0,4.4,3.6,8,8,8c4.4,0,8-3.6,8-8
		C29.2,220.9,25.6,217.3,21.2,217.3z"/>
</g>
<g>
	<path class="st0" d="M21.2,229.8c-2.4,0-4.4-2-4.4-4.4c0-2.4,2-4.4,4.4-4.4c2.4,0,4.4,2,4.4,4.4C25.6,227.8,23.6,229.8,21.2,229.8z
		 M21.2,222.3c-1.7,0-3,1.4-3,3s1.4,3,3,3s3-1.4,3-3S22.9,222.3,21.2,222.3z"/>
</g>
<g>
	<path class="st0" d="M69.5,149.8c-2.8,0-5.1-2.3-5.1-5.1c0-2.8,2.3-5.1,5.1-5.1c2.8,0,5.1,2.3,5.1,5.1
		C74.7,147.5,72.4,149.8,69.5,149.8z M69.5,140.9c-2.1,0-3.7,1.7-3.7,3.7s1.7,3.7,3.7,3.7s3.7-1.7,3.7-3.7S71.6,140.9,69.5,140.9z"
		/>
</g>
<g>
	<path class="st0" d="M291.6,102.2c-0.8,0-1.6-0.1-2.3-0.2l-0.4-0.1l-1.6-4.7l-3.7,2.9l-0.4-0.2c-1.3-0.7-2.4-1.6-3.5-2.6l-0.3-0.3
		l1.5-4.7l-4.7,0.2l-0.2-0.4c-0.6-1.3-1-2.7-1.3-4.1l-0.1-0.4l4-3l-3.9-2.6l0.1-0.5c0.3-1.4,0.8-2.8,1.4-4.1l0.2-0.4l5-0.1l-1.6-4.4
		l0.3-0.3c1.1-1,2.3-1.8,3.5-2.5l0.4-0.2l4,2.9l1.3-4.5l0.5-0.1c1.4-0.2,2.9-0.2,4.3,0l0.4,0.1l1.6,4.7l3.7-2.9l0.4,0.2
		c1.3,0.7,2.4,1.6,3.5,2.6l0.3,0.3l-1.5,4.7l4.7-0.2l0.2,0.4c0.6,1.3,1,2.7,1.3,4.1l0.1,0.4l-4,3l3.9,2.6l-0.1,0.5
		c-0.3,1.4-0.8,2.8-1.4,4.1l-0.2,0.4l-5,0.1l1.6,4.4l-0.3,0.3c-1.1,1-2.2,1.8-3.5,2.5l-0.4,0.2l-4-2.9L294,102l-0.5,0.1
		C292.9,102.2,292.2,102.2,291.6,102.2z M289.8,100.7c1,0.1,2.1,0.1,3.1,0l1.6-5.5l4.9,3.5c0.9-0.5,1.7-1.1,2.5-1.8l-2-5.4l6.1-0.1
		c0.4-0.9,0.8-1.9,1-2.9l-4.8-3.2l4.9-3.6c-0.2-1-0.5-2-0.9-3l-5.8,0.2l1.8-5.8c-0.8-0.7-1.6-1.3-2.5-1.9l-4.5,3.5l-1.9-5.7
		c-1-0.1-2.1-0.1-3.1,0l-1.6,5.5l-4.9-3.5c-0.9,0.5-1.7,1.1-2.5,1.8l2,5.4l-6.1,0.1c-0.4,0.9-0.8,1.9-1,2.9l4.8,3.2l-4.9,3.6
		c0.2,1,0.5,2,0.9,3l5.8-0.2l-1.8,5.8c0.8,0.7,1.6,1.3,2.5,1.9l4.5-3.5L289.8,100.7z"/>
</g>
<g>
	<path class="st0" d="M291.6,94.6c-5.3,0-9.7-4.4-9.7-9.7s4.4-9.7,9.7-9.7c5.3,0,9.7,4.4,9.7,9.7S296.9,94.6,291.6,94.6z
		 M291.6,76.6c-4.6,0-8.3,3.7-8.3,8.3c0,4.6,3.7,8.3,8.3,8.3c4.6,0,8.3-3.7,8.3-8.3C299.9,80.3,296.1,76.6,291.6,76.6z"/>
</g>
<g>
	<path class="st0" d="M291.6,89.8c-2.7,0-4.9-2.2-4.9-4.9c0-2.7,2.2-4.9,4.9-4.9c2.7,0,4.9,2.2,4.9,4.9
		C296.5,87.6,294.3,89.8,291.6,89.8z M291.6,81.4c-1.9,0-3.5,1.6-3.5,3.5c0,1.9,1.6,3.5,3.5,3.5c1.9,0,3.5-1.6,3.5-3.5
		C295.1,83,293.5,81.4,291.6,81.4z"/>
</g>
<g>
	<rect x="309.1" y="83.8" class="st0" width="19.1" height="1.4"/>
</g>
<g>
	<rect x="254.6" y="83.8" class="st0" width="19.1" height="1.4"/>
</g>
<g>
	<path class="st0" d="M332,89.1c-2.5,0-4.6-2.1-4.6-4.6c0-2.5,2.1-4.6,4.6-4.6c2.5,0,4.6,2.1,4.6,4.6
		C336.6,87.1,334.5,89.1,332,89.1z M332,81.3c-1.8,0-3.2,1.4-3.2,3.2c0,1.8,1.4,3.2,3.2,3.2c1.8,0,3.2-1.4,3.2-3.2
		C335.2,82.7,333.8,81.3,332,81.3z"/>
</g>
<g>
	<path class="st0" d="M250.8,89.1c-2.5,0-4.6-2.1-4.6-4.6c0-2.5,2.1-4.6,4.6-4.6c2.5,0,4.6,2.1,4.6,4.6
		C255.4,87.1,253.4,89.1,250.8,89.1z M250.8,81.3c-1.8,0-3.2,1.4-3.2,3.2c0,1.8,1.4,3.2,3.2,3.2c1.8,0,3.2-1.4,3.2-3.2
		C254.1,82.7,252.6,81.3,250.8,81.3z"/>
</g>
<g>
	<path class="st5" d="M440.1,52.7h-87.6c-3.5,0-6.4,2.9-6.4,6.4V112c0,3.5,2.9,6.4,6.4,6.4h87.6c3.5,0,6.4-2.9,6.4-6.4V59.1
		C446.5,55.6,443.7,52.7,440.1,52.7z"/>
</g>
<g>
	<rect x="357" y="93.2" class="st2" width="80.4" height="3.3"/>
</g>
<g>
	<rect x="357" y="97.8" class="st2" width="10.8" height="1.7"/>
</g>
<g>
	<rect x="369.2" y="97.8" class="st2" width="10.8" height="1.7"/>
</g>
<g>
	<rect x="357" y="110.3" class="st2" width="23" height="1.7"/>
</g>
<g>
	<rect x="421" y="110.3" class="st2" width="14.5" height="1.7"/>
</g>
<g>
	<rect x="404.4" y="110.3" class="st2" width="14.6" height="1.7"/>
</g>
<g>
	<rect x="403.4" y="79.6" class="st6" width="32.9" height="8.6"/>
</g>
<g>
	<path class="st0" d="M412.1,270.3C412,270.3,412,270.3,412.1,270.3l0-1.4c0,0,0,0,0,0c9.9,0,13.4-7.1,13.5-9.6c0-0.6,0-3.6,0-7.8
		c0-15,0-46.4,0.8-56.8c0.5-7.5,8.5-11.9,15.7-12.2c7.3-0.3,16.4,3.5,18.1,15c0,0.6-0.4,50.4,0.8,60.5c0.9,7.3,10.1,11.3,18.1,10.8
		c6.3-0.4,13-3.6,13-11.6l-0.4-152.2c0-15.4-15-19.4-15.1-19.5l-11.8-0.4l0-1.4l11.9,0.4c0.3,0.1,16.3,4.4,16.3,20.8l0.4,152.2
		c0,8.9-7.4,12.5-14.3,13c-8.8,0.5-18.6-3.8-19.6-12.1c-1.2-10.2-0.8-58.5-0.8-60.5c-1.6-10.5-9.6-14-16.7-13.7
		c-6.6,0.3-13.9,4.2-14.4,10.9c-0.8,10.4-0.8,41.7-0.8,56.7c0,4.4,0,7.2,0,7.8C426.8,262.2,423,270.3,412.1,270.3z"/>
</g>
<g>
	<path class="st0" d="M476.4,261.9c-5.4,0-9.8-4.4-9.8-9.8c0-5.4,4.4-9.8,9.8-9.8c5.4,0,9.8,4.4,9.8,9.8
		C486.2,257.5,481.8,261.9,476.4,261.9z M476.4,243.6c-4.7,0-8.4,3.8-8.4,8.4c0,4.7,3.8,8.4,8.4,8.4c4.7,0,8.4-3.8,8.4-8.4
		C484.8,247.4,481,243.6,476.4,243.6z"/>
</g>
<g>
	<path class="st0" d="M442.8,213.7c-5.4,0-9.8-4.4-9.8-9.8c0-5.4,4.4-9.8,9.8-9.8c5.4,0,9.8,4.4,9.8,9.8
		C452.6,209.3,448.2,213.7,442.8,213.7z M442.8,195.4c-4.7,0-8.4,3.8-8.4,8.4c0,4.7,3.8,8.4,8.4,8.4c4.7,0,8.4-3.8,8.4-8.4
		C451.2,199.2,447.4,195.4,442.8,195.4z"/>
</g>
<g>
	<path class="st0" d="M476.4,257.2c-2.8,0-5.1-2.3-5.1-5.1c0-2.8,2.3-5.1,5.1-5.1c2.8,0,5.1,2.3,5.1,5.1
		C481.5,254.9,479.2,257.2,476.4,257.2z M476.4,248.3c-2.1,0-3.7,1.7-3.7,3.7c0,2.1,1.7,3.7,3.7,3.7c2.1,0,3.7-1.7,3.7-3.7
		C480.1,250,478.5,248.3,476.4,248.3z"/>
</g>
<g>
	<path class="st0" d="M442.8,209c-2.8,0-5.1-2.3-5.1-5.1c0-2.8,2.3-5.1,5.1-5.1c2.8,0,5.1,2.3,5.1,5.1
		C447.9,206.7,445.6,209,442.8,209z M442.8,200.1c-2.1,0-3.7,1.7-3.7,3.7c0,2.1,1.7,3.7,3.7,3.7c2.1,0,3.7-1.7,3.7-3.7
		C446.5,201.8,444.8,200.1,442.8,200.1z"/>
</g>
<g>
	<path class="st0" d="M408.3,274.8c-2.8,0-5.1-2.3-5.1-5.1s2.3-5.1,5.1-5.1s5.1,2.3,5.1,5.1S411.1,274.8,408.3,274.8z M408.3,266
		c-2.1,0-3.7,1.7-3.7,3.7c0,2.1,1.7,3.7,3.7,3.7c2.1,0,3.7-1.7,3.7-3.7C412,267.6,410.3,266,408.3,266z"/>
</g>
<g>
	<path class="st0" d="M460.3,90.5c-2.8,0-5.1-2.3-5.1-5.1c0-2.8,2.3-5.1,5.1-5.1s5.1,2.3,5.1,5.1C465.4,88.2,463.1,90.5,460.3,90.5z
		 M460.3,81.6c-2.1,0-3.7,1.7-3.7,3.7c0,2.1,1.7,3.7,3.7,3.7c2.1,0,3.7-1.7,3.7-3.7C464,83.3,462.4,81.6,460.3,81.6z"/>
</g>
<g>
	<path class="st0" d="M178.6,416.7l-1.4-0.2c1.4-9,6-14.7,14.2-17.4l0.2,0l28.7,0.1c0,0,0,0,0,0c5.7,0,6.8-4.2,7-6
		c0.5-3.9-1.6-8.7-5.5-9.6c-9.9-2.3-79.3-0.8-80-0.8c-11.7-1.8-15.4-10.9-15.1-18.1c0.3-7.2,4.7-15.2,12.2-15.7
		c10.5-0.8,29.5-0.8,38.6-0.8c2.6,0,4.4,0,4.9,0l0,1.4c-0.6,0-2.4,0-5,0c-9.1,0-28,0-38.5,0.8c-6.7,0.5-10.7,7.8-10.9,14.4
		c-0.3,7,3.2,15.1,13.8,16.7c2.7-0.1,70.1-1.5,80.2,0.8c4.6,1,7.1,6.6,6.6,11.1c-0.5,4.5-3.6,7.2-8.3,7.2c0,0,0,0,0,0l-28.5-0.1
		C184.2,402.9,179.9,408.2,178.6,416.7z"/>
</g>
<g>
	<path class="st0" d="M186.7,362.5c-2.7,0-4.9-2.2-4.9-4.9c0-2.7,2.2-4.8,4.9-4.8c2.7,0,4.9,2.2,4.9,4.8
		C191.6,360.3,189.4,362.5,186.7,362.5z M186.7,354.1c-1.9,0-3.5,1.6-3.5,3.5c0,1.9,1.6,3.5,3.5,3.5c1.9,0,3.5-1.6,3.5-3.5
		C190.2,355.7,188.6,354.1,186.7,354.1z"/>
</g>
<g>
	<rect x="85.5" y="404.3" class="st7" width="186.6" height="69.2"/>
</g>
<g>
	<rect x="88.7" y="407.3" class="st3" width="13.9" height="13.9"/>
</g>
<g>
	<rect x="105.3" y="407.3" class="st3" width="13.9" height="13.9"/>
</g>
<g>
	<rect x="121.9" y="407.3" class="st3" width="13.9" height="13.9"/>
</g>
<g>
	<rect x="138.6" y="407.3" class="st3" width="13.9" height="13.9"/>
</g>
<g>
	<rect x="155.2" y="407.3" class="st3" width="13.9" height="13.9"/>
</g>
<g>
	<rect x="171.8" y="407.3" class="st3" width="13.9" height="13.9"/>
</g>
<g>
	<rect x="188.5" y="407.3" class="st3" width="13.9" height="13.9"/>
</g>
<g>
	<rect x="205.1" y="407.3" class="st3" width="13.9" height="13.9"/>
</g>
<g>
	<rect x="221.7" y="407.3" class="st3" width="13.9" height="13.9"/>
</g>
<g>
	<rect x="238.4" y="407.3" class="st3" width="13.9" height="13.9"/>
</g>
<g>
	<rect x="255" y="407.3" class="st3" width="13.9" height="13.9"/>
</g>
<g>
	<rect x="88.7" y="423.7" class="st3" width="13.9" height="13.9"/>
</g>
<g>
	<rect x="105.3" y="423.7" class="st3" width="13.9" height="13.9"/>
</g>
<g>
	<rect x="121.9" y="423.7" class="st3" width="13.9" height="13.9"/>
</g>
<g>
	<rect x="138.6" y="423.7" class="st3" width="13.9" height="13.9"/>
</g>
<g>
	<rect x="155.2" y="423.7" class="st3" width="13.9" height="13.9"/>
</g>
<g>
	<rect x="171.8" y="423.7" class="st3" width="13.9" height="13.9"/>
</g>
<g>
	<rect x="188.5" y="423.7" class="st3" width="13.9" height="13.9"/>
</g>
<g>
	<rect x="205.1" y="423.7" class="st3" width="13.9" height="13.9"/>
</g>
<g>
	<rect x="221.7" y="423.7" class="st3" width="13.9" height="13.9"/>
</g>
<g>
	<rect x="238.4" y="423.7" class="st3" width="13.9" height="13.9"/>
</g>
<g>
	<rect x="255" y="423.7" class="st3" width="13.9" height="13.9"/>
</g>
<g>
	<rect x="88.7" y="440.2" class="st3" width="13.9" height="13.9"/>
</g>
<g>
	<rect x="105.3" y="440.2" class="st3" width="13.9" height="13.9"/>
</g>
<g>
	<rect x="121.9" y="440.2" class="st3" width="13.9" height="13.9"/>
</g>
<g>
	<rect x="138.6" y="440.2" class="st3" width="13.9" height="13.9"/>
</g>
<g>
	<rect x="155.2" y="440.2" class="st3" width="13.9" height="13.9"/>
</g>
<g>
	<rect x="171.8" y="440.2" class="st3" width="13.9" height="13.9"/>
</g>
<g>
	<rect x="188.5" y="440.2" class="st3" width="13.9" height="13.9"/>
</g>
<g>
	<rect x="205.1" y="440.2" class="st3" width="13.9" height="13.9"/>
</g>
<g>
	<rect x="221.7" y="440.2" class="st3" width="13.9" height="13.9"/>
</g>
<g>
	<rect x="238.4" y="440.2" class="st3" width="13.9" height="13.9"/>
</g>
<g>
	<rect x="255" y="440.2" class="st3" width="13.9" height="13.9"/>
</g>
<g>
	<rect x="88.7" y="456.6" class="st3" width="13.9" height="13.9"/>
</g>
<g>
	<rect x="105.3" y="456.6" class="st3" width="13.9" height="13.9"/>
</g>
<g>
	<rect x="121.9" y="456.6" class="st3" width="13.9" height="13.9"/>
</g>
<g>
	<rect x="139.6" y="456.6" class="st3" width="78.2" height="13.9"/>
</g>
<g>
	<rect x="221.7" y="456.6" class="st3" width="13.9" height="13.9"/>
</g>
<g>
	<rect x="238.4" y="456.6" class="st3" width="13.9" height="13.9"/>
</g>
<g>
	<rect x="255" y="456.6" class="st3" width="13.9" height="13.9"/>
</g>
<g>
	<polygon class="st8" points="62.4,279.5 43.8,279.5 31.1,292.3 31.1,382.2 75.1,382.2 75.1,292.3 	"/>
</g>
<g>
	<rect x="42.3" y="309" class="st3" width="23.3" height="55.7"/>
</g>
<g>
	<g>
		<rect x="50.6" y="314" class="st2" width="2.3" height="45.7"/>
	</g>
	<g>
		<rect x="55" y="314" class="st2" width="2.3" height="45.7"/>
	</g>
</g>
<g>
	<rect x="114" y="328.4" class="st2" width="289.6" height="18.5"/>
</g>
<g>
	<rect x="122.5" y="174.2" class="st3" width="272.6" height="154.2"/>
</g>
<g>
	<rect x="142.2" y="175.9" class="st9" width="234.4" height="145"/>
</g>
<g>
	<rect x="233.1" y="232.4" class="st10" width="134" height="76.5"/>
</g>
<g>
	<rect x="366.4" y="231.3" class="st0" width="1.4" height="78.7"/>
</g>
<g>
	<rect x="321.8" y="231.3" class="st0" width="1.4" height="77.6"/>
</g>
<g>
	<rect x="277.1" y="231.3" class="st0" width="1.4" height="77.6"/>
</g>
<g>
	<polygon class="st0" points="368.2,309.6 232.4,309.6 232.4,231.3 233.8,231.3 233.8,308.2 368.2,308.2 	"/>
</g>
<g>
	<rect x="233.1" y="270" class="st0" width="134" height="1.4"/>
</g>
<g>
	<rect x="232" y="231.7" class="st0" width="136.3" height="1.4"/>
</g>
<g>
	<rect x="150.3" y="213.7" class="st3" width="72.9" height="133"/>
</g>
<g>
	<rect x="158.2" y="228.2" class="st10" width="57" height="110.1"/>
</g>
<g>
	<rect x="154.1" y="281.9" class="st11" width="65.3" height="11"/>
</g>
<g>
	<rect x="197.3" y="285.6" class="st7" width="18.6" height="2"/>
</g>
<g>
	<polygon class="st12" points="408.1,229.9 109.1,229.9 131.4,184.8 385.8,184.8 	"/>
</g>
<g>
	<path class="st11" d="M139.5,205.6c3.1-7.3,6.1-14.2,8.9-20.8c5.7,0,11.3,0,17,0c-2.4,6.6-4.9,13.5-7.5,20.8
		c-2.8,7.7-5.7,15.8-8.8,24.4c-6.6,0-13.3,0-19.9,0C132.8,221.4,136.2,213.2,139.5,205.6L139.5,205.6z M182.3,184.8
		c5.7,0,11.3,0,17,0c-1.5,6.6-3.1,13.5-4.8,20.8c-1.8,7.7-3.6,15.8-5.6,24.4c-6.6,0-13.3,0-19.9,0c2.5-8.6,5-16.7,7.2-24.4
		C178.3,198.3,180.4,191.4,182.3,184.8L182.3,184.8z M216.3,184.8c5.6,0,11.3,0,16.9,0c-0.7,6.6-1.3,13.5-2.1,20.8
		c-0.8,7.7-1.6,15.8-2.4,24.4c-6.6,0-13.3,0-19.9,0c1.4-8.6,2.7-16.7,4-24.4C214,198.3,215.2,191.4,216.3,184.8L216.3,184.8z
		 M250.1,184.8c5.7,0,11.3,0,17,0c0.2,6.6,0.4,13.5,0.7,20.8c0.3,7.7,0.5,15.8,0.8,24.4c-6.6,0-13.3,0-19.9,0
		c0.3-8.6,0.5-16.7,0.8-24.4C249.7,198.3,249.9,191.4,250.1,184.8L250.1,184.8z M304.4,205.6c1.3,7.7,2.6,15.8,4,24.4
		c-6.6,0-13.3,0-19.9,0c-0.8-8.6-1.7-16.7-2.4-24.4c-0.7-7.3-1.4-14.2-2-20.8c5.7,0,11.3,0,17,0
		C302.1,191.4,303.2,198.3,304.4,205.6L304.4,205.6z M341.1,205.6c2.3,7.7,4.7,15.8,7.2,24.4c-6.6,0-13.3,0-19.9,0
		c-2-8.6-3.9-16.7-5.6-24.4c-1.7-7.3-3.3-14.2-4.8-20.8c5.6,0,11.3,0,16.9,0C336.9,191.4,338.9,198.3,341.1,205.6L341.1,205.6z
		 M377.7,205.6c3.3,7.7,6.8,15.8,10.4,24.4c-6.6,0-13.3,0-19.9,0c-3.1-8.6-6.1-16.7-8.8-24.4c-2.6-7.3-5.1-14.2-7.5-20.8
		c5.7,0,11.3,0,17,0C371.7,191.4,374.6,198.3,377.7,205.6z"/>
</g>
<g>
	<path class="st3" d="M149,229.9v10.3c0,5.5-4.5,9.9-10,9.9c-5.5,0-10-4.5-10-9.9v-10.3H149L149,229.9z M188.8,240.2
		c0,5.5-4.5,9.9-10,9.9c-5.5,0-10-4.5-10-9.9v-10.3h19.9V240.2L188.8,240.2z M228.7,240.2c0,5.5-4.5,9.9-10,9.9
		c-5.5,0-10-4.5-10-9.9v-10.3h19.9V240.2L228.7,240.2z M268.6,240.2c0,5.5-4.5,9.9-10,9.9c-5.5,0-10-4.5-10-9.9v-10.3h19.9V240.2
		L268.6,240.2z M308.4,240.2c0,5.5-4.5,9.9-10,9.9c-5.5,0-10-4.5-10-9.9v-10.3h19.9V240.2L308.4,240.2z M348.3,240.2
		c0,5.5-4.5,9.9-10,9.9c-5.5,0-10-4.5-10-9.9v-10.3h19.9V240.2L348.3,240.2z M388.1,240.2c0,5.5-4.5,9.9-10,9.9
		c-5.5,0-10-4.5-10-9.9v-10.3h19.9V240.2z"/>
</g>
<g>
	<path class="st13" d="M129,229.9v10.3c0,5.5-4.5,9.9-10,9.9c-5.5,0-10-4.5-10-9.9v-10.3H129L129,229.9z M168.9,240.2
		c0,5.5-4.5,9.9-10,9.9c-5.5,0-10-4.5-10-9.9v-10.3h19.9V240.2L168.9,240.2z M208.8,240.2c0,5.5-4.5,9.9-10,9.9
		c-5.5,0-10-4.5-10-9.9v-10.3h19.9V240.2L208.8,240.2z M248.6,240.2c0,5.5-4.5,9.9-10,9.9c-5.5,0-10-4.5-10-9.9v-10.3h19.9V240.2
		L248.6,240.2z M288.5,240.2c0,5.5-4.5,9.9-10,9.9c-5.5,0-10-4.5-10-9.9v-10.3h19.9V240.2L288.5,240.2z M328.3,240.2
		c0,5.5-4.5,9.9-10,9.9c-5.5,0-10-4.5-10-9.9v-10.3h19.9V240.2L328.3,240.2z M368.2,240.2c0,5.5-4.5,9.9-10,9.9
		c-5.5,0-10-4.5-10-9.9v-10.3h19.9V240.2L368.2,240.2z M408.1,240.2c0,5.5-4.5,9.9-10,9.9c-5.5,0-10-4.5-10-9.9v-10.3h19.9V240.2z"
		/>
</g>
<g>
	<path class="st8" d="M405.1,401.6c31.6,0,57.4-25.8,57.4-57.4c0-31.6-25.8-57.4-57.4-57.4c-31.6,0-57.4,25.8-57.4,57.4
		C347.7,375.8,373.5,401.6,405.1,401.6z"/>
</g>
<g>
	<path class="st0" d="M390,366.1l28.1-45.1l2.2,1.3l-28,45L390,366.1L390,366.1z M388.8,340.2c1.6,2,3.6,3,6,3c2.4,0,4.4-1,6-3
		c1.6-2,2.5-4.7,2.5-8.1c0-3.4-0.8-6-2.3-7.9c-1.6-1.9-3.6-2.9-6.1-2.9c-2.5,0-4.5,1-6.1,2.9c-1.6,1.9-2.4,4.6-2.4,7.9
		C386.3,335.5,387.2,338.2,388.8,340.2L388.8,340.2z M390.6,325.7c-1.1,1.5-1.7,3.7-1.7,6.4c0,2.7,0.6,4.9,1.7,6.5
		c1.1,1.6,2.6,2.3,4.3,2.3c1.7,0,3.1-0.8,4.2-2.3c1.1-1.6,1.7-3.7,1.7-6.5c0-2.7-0.6-4.9-1.7-6.4c-1.1-1.5-2.5-2.3-4.2-2.3
		C393.2,323.4,391.7,324.2,390.6,325.7L390.6,325.7z M409.4,363.7c1.6,2,3.6,3,6,3c2.4,0,4.4-1,6-3c1.6-2,2.5-4.7,2.5-8.1
		c0-3.4-0.8-6-2.3-7.9c-1.6-1.9-3.6-2.9-6.1-2.9c-2.5,0-4.5,1-6.1,2.9c-1.6,1.9-2.4,4.6-2.4,7.9C406.9,359,407.8,361.7,409.4,363.7
		L409.4,363.7z M411.2,349.2c-1.1,1.5-1.7,3.7-1.7,6.4c0,2.7,0.6,4.9,1.7,6.5c1.1,1.6,2.6,2.3,4.3,2.3c1.7,0,3.1-0.8,4.2-2.3
		c1.1-1.6,1.7-3.7,1.7-6.5c0-2.7-0.6-4.9-1.7-6.4c-1.1-1.5-2.5-2.3-4.2-2.3C413.8,346.9,412.3,347.7,411.2,349.2z"/>
</g>
<g>
	<path class="st0" d="M52.6,293.1l-0.6-21.2l0-0.1c1.9-7,6.9-11.5,15.5-13.8l0.2,0h17.9c6.9,0,10.5-3.9,10.5-7.7c0-3.6-3-7.2-10-7.4
		l-59.7-1.1c-8-0.1-11.7-0.2-16.2-3.7c-5.3-4-7.3-10.7-5.2-17.1c2-6,8-12.4,19.1-12.5l16.8-0.2c7.9-2.1,12.4-7.5,13.5-16.3l0-57.6
		c1.6-9.7,7.2-15.5,16.6-17.3l0.3,1.4c-9,1.8-14,7-15.5,16.1l0,57.6c-1.1,9.4-6,15.3-14.6,17.6L24.1,210
		c-10.3,0.1-15.9,6.1-17.8,11.6c-1.9,5.9-0.1,11.8,4.7,15.5c4.2,3.2,7.5,3.2,15.4,3.4l59.7,1.1c7.9,0.1,11.4,4.6,11.4,8.8
		c0,4.5-4.2,9.1-11.9,9.1H67.8c-7.9,2.1-12.6,6.3-14.4,12.7l0.6,21L52.6,293.1z"/>
</g>
<g>
	<circle class="st3" cx="53.2" cy="292.9" r="3.4"/>
</g>
<g>
	<path class="st7" d="M304.4,419.9L304.4,419.9c7.1,0,13,5.8,13,13v16.3c0,7.1-5.8,13-13,13l0,0c-7.1,0-13-5.8-13-13v-16.3
		C291.5,425.7,297.3,419.9,304.4,419.9z"/>
</g>
<g>
	<path class="st14" d="M304.4,419.9L304.4,419.9c7.1,0,13,5.8,13,13v1.1h-25.9v-1.1C291.5,425.7,297.3,419.9,304.4,419.9z"/>
</g>
<g>
	<path class="st0" d="M303.3,428.8c0-0.9,0.6-1.7,1.3-1.7c0.7,0,1.3,0.7,1.3,1.7v5c0,0.9-0.6,1.7-1.3,1.7c-0.7,0-1.3-0.7-1.3-1.7
		V428.8z"/>
</g>
<g>
	<rect x="114" y="155.9" class="st11" width="289.6" height="18.5"/>
</g>
<g>
	<rect x="200.6" y="128.7" class="st13" width="117.8" height="27.3"/>
</g>
<g>
	<rect x="205.4" y="134" class="st3" width="108.1" height="22"/>
</g>
<g>
	<path class="st15" d="M218.7,147l2.3-0.2c0.1,0.8,0.4,1.3,0.8,1.7c0.4,0.4,1,0.5,1.7,0.5c0.8,0,1.3-0.2,1.7-0.5
		c0.4-0.3,0.6-0.7,0.6-1.1c0-0.3-0.1-0.5-0.2-0.7c-0.2-0.2-0.4-0.4-0.8-0.5c-0.3-0.1-0.9-0.3-1.9-0.5c-1.3-0.3-2.1-0.7-2.6-1.1
		c-0.7-0.6-1.1-1.4-1.1-2.3c0-0.6,0.2-1.1,0.5-1.7c0.3-0.5,0.8-0.9,1.4-1.2c0.6-0.3,1.4-0.4,2.3-0.4c1.5,0,2.5,0.3,3.3,1
		c0.7,0.6,1.1,1.5,1.2,2.6l-2.3,0.1c-0.1-0.6-0.3-1-0.6-1.3c-0.3-0.3-0.8-0.4-1.5-0.4c-0.7,0-1.2,0.1-1.6,0.4
		c-0.2,0.2-0.4,0.4-0.4,0.7c0,0.3,0.1,0.5,0.3,0.7c0.3,0.2,1,0.5,2.1,0.8c1.1,0.3,2,0.5,2.5,0.8c0.5,0.3,1,0.7,1.3,1.2
		c0.3,0.5,0.5,1.1,0.5,1.8c0,0.7-0.2,1.3-0.6,1.9c-0.4,0.6-0.9,1-1.6,1.3c-0.7,0.3-1.5,0.4-2.5,0.4c-1.5,0-2.6-0.3-3.4-1
		C219.4,149.3,218.9,148.3,218.7,147L218.7,147z M239.4,150.8v-9.6H236v-2h9.2v2h-3.4v9.6H239.4L239.4,150.8z M252.6,145
		c0-1.2,0.2-2.2,0.5-3c0.3-0.6,0.6-1.1,1.1-1.6c0.5-0.5,1-0.8,1.5-1c0.7-0.3,1.6-0.5,2.5-0.5c1.7,0,3.1,0.5,4.1,1.6
		c1,1.1,1.5,2.5,1.5,4.4c0,1.9-0.5,3.3-1.5,4.4c-1,1.1-2.4,1.6-4.1,1.6c-1.7,0-3.1-0.5-4.1-1.6C253.1,148.3,252.6,146.9,252.6,145
		L252.6,145z M255,145c0,1.3,0.3,2.3,0.9,3c0.6,0.7,1.4,1,2.3,1c0.9,0,1.7-0.3,2.3-1c0.6-0.7,0.9-1.7,0.9-3c0-1.3-0.3-2.3-0.9-3
		c-0.6-0.7-1.4-1-2.3-1c-1,0-1.7,0.3-2.3,1C255.3,142.6,255,143.6,255,145L255,145z M272.4,150.8v-11.6h4.9c1.2,0,2.1,0.1,2.7,0.3
		c0.6,0.2,1,0.6,1.3,1.1c0.3,0.5,0.5,1.1,0.5,1.8c0,0.9-0.3,1.6-0.8,2.2c-0.5,0.6-1.3,0.9-2.3,1.1c0.5,0.3,0.9,0.6,1.3,1
		c0.3,0.4,0.8,1,1.3,1.9l1.4,2.3H280l-1.7-2.5c-0.6-0.9-1-1.5-1.2-1.7c-0.2-0.2-0.5-0.4-0.7-0.5c-0.2-0.1-0.6-0.1-1.2-0.1h-0.5v4.8
		H272.4L272.4,150.8z M274.7,144.1h1.7c1.1,0,1.8,0,2.1-0.1c0.3-0.1,0.5-0.3,0.7-0.5c0.2-0.2,0.2-0.5,0.2-0.9c0-0.4-0.1-0.7-0.3-0.9
		c-0.2-0.2-0.5-0.4-0.9-0.5c-0.2,0-0.8,0-1.7,0h-1.8V144.1L274.7,144.1z M290.7,150.8v-11.6h8.6v2h-6.2v2.6h5.8v2h-5.8v3.2h6.5v2
		H290.7z"/>
</g>
<g>
	<path class="st0" d="M264.8,373.9c-2.7,0-4.8-2.2-4.8-4.9c0-2.7,2.2-4.9,4.8-4.9c2.7,0,4.9,2.2,4.9,4.9
		C269.7,371.7,267.5,373.9,264.8,373.9z M264.8,365.6c-1.9,0-3.5,1.6-3.5,3.5c0,1.9,1.6,3.5,3.5,3.5c1.9,0,3.5-1.6,3.5-3.5
		C268.3,367.1,266.8,365.6,264.8,365.6z"/>
</g>
</svg>
