<?xml version="1.0" encoding="utf-8"?>
<!-- Generator: Adobe Illustrator 20.1.0, SVG Export Plug-In . SVG Version: 6.00 Build 0)  -->
<svg version="1.1" id="Layer_1" xmlns="http://www.w3.org/2000/svg" xmlns:xlink="http://www.w3.org/1999/xlink" x="0px" y="0px"
	 viewBox="0 0 36.7 40.6" style="enable-background:new 0 0 36.7 40.6;" xml:space="preserve">
<style type="text/css">
	.st0{fill:none;}
	.st1{enable-background:new    ;}
	.st2{fill:#8E99A8;}
	.st3{fill:#24A9E6;}
	.st4{fill:#FFFFFF;}
	.st5{fill:#1CB1E6;}
	.st6{fill:#2A5B83;}
	.st7{fill:#187FB8;}
	.st8{fill:#1A70F9;}
	.st9{fill:#E64C87;}
	.st10{fill:#43619C;}
	.st11{fill:#F24033;}
</style>
<g id="SIGNATURE">
	<rect x="-149.8" y="876" class="st0" width="459.6" height="82.7"/>
	<text transform="matrix(1 0 0 1 -149.7581 895.1969)" class="st2" style="font-family:'ArialMT'; font-size:27px;">CHRISTOPHE KEREBEL</text>
	<rect x="449.3" y="876.8" class="st0" width="384.4" height="82.7"/>
	<text transform="matrix(1 0 0 1 575.3454 895.9501)" class="st2" style="font-family:'ArialMT'; font-size:27px;">My Twitter </text>
	<text transform="matrix(1 0 0 1 701.0454 895.9501)" class="st3" style="font-family:'ArialMT'; font-size:27px;">: @chriskere</text>
</g>
<g id="BACKGROUND">
	<rect x="-347.2" y="475.1" class="st2" width="1372.9" height="332"/>
</g>
<g id="_x30_6-SINGLE-WHITE">
	<path id="Vimeo_3_" class="st4" d="M803.2,655.1c-5.1-0.2-8.5,2.7-10.4,8.5c0.9-0.4,1.8-0.6,2.7-0.6c1.9,0,2.7,1,2.5,3.1
		c-0.1,1.3-0.9,3.1-2.5,5.5c-1.5,2.4-2.7,3.6-3.5,3.6c-1,0-1.9-1.8-2.7-5.5c-0.3-1.1-0.8-3.8-1.5-8.3c-0.7-4.1-2.4-6-5.3-5.8
		c-1.2,0.1-3,1.2-5.4,3.3c-1.8,1.6-3.5,3.1-5.3,4.7l1.7,2.2c1.6-1.1,2.6-1.7,2.9-1.7c1.3,0,2.4,2,3.5,5.9c1,3.6,2,7.2,3,10.7
		c1.5,3.9,3.3,5.8,5.4,5.8c3.5,0,7.7-3.2,12.7-9.6c4.8-6.1,7.3-10.9,7.5-14.5C808.8,657.6,807,655.2,803.2,655.1z"/>
	<path id="Instagram_3_" class="st4" d="M675.2,652.2h-27.9c-2.4,0-4.4,1.9-4.4,4.3v28c0,2.4,2,4.3,4.4,4.3h27.9
		c2.4,0,4.4-1.9,4.4-4.3v-28C679.5,654.1,677.6,652.2,675.2,652.2z M669.2,657.9c0-0.6,0.5-1.1,1.1-1.1h3.4c0.6,0,1.1,0.5,1.1,1.1
		v3.4c0,0.6-0.5,1.1-1.1,1.1h-3.4c-0.6,0-1.1-0.5-1.1-1.1V657.9z M661.2,663.5c3.9,0,7.1,3.1,7.1,7s-3.2,7-7.1,7c-3.9,0-7-3.1-7-7
		C654.2,666.7,657.3,663.5,661.2,663.5z M676.1,684.3c0,0.6-0.5,1.1-1.1,1.1h-27.5c-0.6,0-1.1-0.5-1.1-1.1v-17.2h4.6
		c-0.6,0.9-0.8,2.5-0.8,3.5c0,6.1,5,11.1,11.2,11.1s11.2-5,11.2-11.1c0-1-0.1-2.6-0.9-3.5h4.6v17.2H676.1z"/>
	<path id="Twitter_3_" class="st4" d="M550.5,655.4c-1.5,0.9-3.1,1.6-4.9,1.9c-1.4-1.5-3.4-2.5-5.6-2.5c-4.2,0-7.7,3.5-7.7,7.9
		c0,0.6,0.1,1.2,0.2,1.8c-6.4-0.3-12-3.5-15.8-8.2c-0.7,1.2-1,2.5-1,4c0,2.7,1.4,5.1,3.4,6.6c-1.3,0-2.4-0.4-3.5-1v0.1
		c0,3.8,2.6,7,6.2,7.7c-0.6,0.2-1.3,0.3-2,0.3c-0.5,0-1,0-1.4-0.1c1,3.1,3.8,5.4,7.2,5.5c-2.6,2.1-5.9,3.4-9.5,3.4
		c-0.6,0-1.2,0-1.8-0.1c3.4,2.2,7.4,3.5,11.8,3.5c14.1,0,21.9-12,21.9-22.4c0-0.3,0-0.7,0-1c1.5-1.1,2.8-2.5,3.8-4.1
		c-1.4,0.6-2.9,1.1-4.4,1.2C548.7,658.7,549.9,657.2,550.5,655.4z"/>
	<g id="LinkedIn_3_">
		<rect x="387.4" y="664.9" class="st4" width="7.2" height="22.8"/>
		<path class="st4" d="M414.2,664.6c-4.1,0-6.7,2.2-7.2,3.8v-3.6h-8.1c0.1,1.9,0,22.8,0,22.8h8.1v-12.3c0-0.7,0-1.4,0.2-1.9
			c0.6-1.4,1.7-2.8,3.9-2.8c2.8,0,4.1,2.1,4.1,5.2v11.8h8.2V675C423.3,667.9,419.3,664.6,414.2,664.6z"/>
		<path class="st4" d="M390.8,654.1c-2.7,0-4.4,1.7-4.4,4c0,2.2,1.7,3.9,4.3,3.9h0.1c2.7,0,4.4-1.7,4.4-4
			C395.1,655.8,393.5,654.1,390.8,654.1z"/>
	</g>
	<g id="Behance_3_">
		<path class="st4" d="M272.5,669.6c0.8-0.4,1.3-0.8,1.7-1.3c0.7-0.8,1-1.9,1-3.3c0-1.3-0.3-2.5-1-3.4c-1.2-1.5-3.1-2.3-5.9-2.4
			h-10.9v22.3h10.2c1.2,0,2.2-0.1,3.2-0.3s1.8-0.6,2.6-1.1c0.6-0.5,1.2-1.1,1.6-1.8c0.7-1,1-2.2,1-3.6c0-1.3-0.3-2.4-0.9-3.3
			C274.5,670.7,273.7,670,272.5,669.6z M262,663.1h4.9c1.1,0,2,0.1,2.7,0.3c0.8,0.3,1.2,1,1.2,2.1c0,0.9-0.3,1.6-0.9,2
			c-0.6,0.4-1.4,0.6-2.4,0.6H262V663.1z M269.8,677.3c-0.5,0.3-1.3,0.4-2.3,0.4H262v-6h5.6c1,0,1.7,0.1,2.3,0.4
			c1,0.4,1.4,1.2,1.4,2.4C271.2,675.9,270.7,676.8,269.8,677.3z"/>
		<rect x="280.9" y="660.3" class="st4" width="9.7" height="2.8"/>
		<path class="st4" d="M292.6,667.8c-0.8-1.1-1.7-1.9-2.9-2.4s-2.5-0.8-3.9-0.8c-2.5,0-4.4,0.8-6,2.3c-1.5,1.5-2.3,3.7-2.3,6.6
			c0,3.1,0.8,5.3,2.6,6.6c1.7,1.4,3.7,2,5.9,2c2.7,0,4.8-0.8,6.3-2.4c1-1,1.5-2,1.6-3h-4.5c-0.3,0.5-0.6,0.9-0.9,1.1
			c-0.6,0.5-1.4,0.8-2.4,0.8c-0.9,0-1.7-0.2-2.4-0.6c-1.1-0.7-1.7-1.8-1.8-3.5h12.2c0-1.4,0-2.5-0.1-3.3
			C293.7,669.9,293.3,668.8,292.6,667.8z M282,671.7c0.2-1.1,0.5-1.9,1.2-2.6c0.6-0.6,1.5-0.9,2.6-0.9c1,0,1.9,0.3,2.6,0.9
			c0.7,0.6,1.1,1.5,1.2,2.6H282z"/>
	</g>
	<path id="Dribbble_3_" class="st4" d="M164.1,663.4c-0.5-1.1-1-2.1-1.7-3.1s-1.4-1.9-2.2-2.7c-0.8-0.8-1.7-1.6-2.7-2.2
		c-1-0.7-2-1.2-3.1-1.7s-2.3-0.8-3.4-1.1c-1.2-0.2-2.4-0.4-3.7-0.4c-1.2,0-2.5,0.1-3.7,0.4c-1.2,0.2-2.3,0.6-3.4,1.1s-2.1,1-3.1,1.7
		s-1.9,1.4-2.7,2.2c-0.8,0.8-1.6,1.7-2.2,2.7c-0.7,1-1.2,2-1.7,3.1s-0.8,2.3-1.1,3.4c-0.2,1.2-0.4,2.4-0.4,3.7
		c0,1.2,0.1,2.5,0.4,3.7c0.2,1.2,0.6,2.3,1.1,3.4c0.5,1.1,1,2.1,1.7,3.1s1.4,1.9,2.2,2.7c0.8,0.8,1.7,1.6,2.7,2.2
		c1,0.7,2,1.2,3.1,1.7s2.3,0.8,3.4,1.1c1.2,0.3,2.4,0.4,3.7,0.4c1.2,0,2.5-0.1,3.7-0.4c1.2-0.2,2.3-0.6,3.4-1.1s2.1-1,3.1-1.7
		s1.9-1.4,2.7-2.2c0.8-0.8,1.6-1.7,2.2-2.7c0.7-1,1.2-2,1.7-3.1s0.8-2.3,1.1-3.4c0.2-1.2,0.4-2.4,0.4-3.7c0-1.2-0.1-2.5-0.4-3.7
		C164.9,665.6,164.6,664.5,164.1,663.4z M147.2,654.8c4,0,7.6,1.5,10.3,3.9c0,0.1-2.3,3.5-8.2,5.7c-2.7-4.9-5.6-8.8-5.9-9.1
		C144.7,655,146,654.8,147.2,654.8z M143.5,655.3L143.5,655.3L143.5,655.3C143.4,655.3,143.5,655.3,143.5,655.3z M140.5,656.3
		c0.2,0.3,3.1,4.2,5.8,9c-7.5,2-14,1.9-14.5,1.9C132.9,662.4,136.2,658.4,140.5,656.3z M135.6,681c-2.5-2.8-4-6.4-4-10.5
		c0-0.2,0-0.3,0-0.5c0.3,0,8,0.2,16.1-2.2c0.4,0.9,0.9,1.8,1.3,2.7c-0.2,0.1-0.4,0.1-0.6,0.2C139.9,673.4,135.6,681,135.6,681
		L135.6,681z M147.2,686.2c-3.7,0-7.1-1.3-9.8-3.4c-0.1,0-0.1-0.1-0.2-0.2c0.1,0.1,0.1,0.1,0.2,0.2c0.1,0.1,0.2,0.1,0.2,0.1
		s3-6.5,12.3-9.8h0.1c2.2,5.7,3.1,10.5,3.3,11.9C151.5,685.7,149.4,686.2,147.2,686.2z M156,683.5c-0.2-0.9-1-5.5-3-11.2
		c5.1-0.8,9.4,0.6,9.8,0.7C162,677.4,159.5,681.1,156,683.5z M152,669.8c-0.1-0.3-0.2-0.5-0.3-0.8c-0.3-0.8-0.7-1.5-1-2.3
		c6.2-2.5,8.7-6.2,8.7-6.2c2.2,2.7,3.5,6.1,3.6,9.8C162.7,670.3,157.4,669.2,152,669.8z"/>
	<path id="Facebook_2_" class="st4" d="M36.8,687.3c0,1.1-0.9,2-2,2h-9.4v-14.2h4.8l0.7-5.5h-5.5v-3.5c0-1.6,0.4-2.7,2.7-2.7H31v-5
		c-0.5-0.1-2.2-0.2-4.3-0.2c-4.2,0-7.1,2.6-7.1,7.3v4.1h-4.8v5.5h4.8v14.2H2c-1.1,0-2-0.9-2-2v-32.7c0-1.1,0.9-2,2-2h32.7
		c1.1,0,2,0.9,2,2L36.8,687.3L36.8,687.3z"/>
	<g id="Google_x2B__2_">
		<path class="st4" d="M-118.5,668.1v5.1c0,0,4.9,0,6.9,0c-1.1,3.3-2.8,5.1-6.9,5.1c-4.2,0-7.5-3.4-7.5-7.6c0-4.2,3.3-7.6,7.5-7.6
			c2.2,0,3.7,0.8,5,1.9c1.1-1.1,1-1.2,3.6-3.7c-2.3-2.1-5.3-3.3-8.6-3.3c-7.1,0-12.8,5.7-12.8,12.8s5.7,12.8,12.8,12.8
			c10.6,0,13.2-9.2,12.3-15.4L-118.5,668.1L-118.5,668.1z"/>
		<polygon class="st4" points="-95.4,668.3 -95.4,663.9 -98.5,663.9 -98.5,668.3 -103.1,668.3 -103.1,671.5 -98.5,671.5 
			-98.5,676.1 -95.4,676.1 -95.4,671.5 -90.9,671.5 -90.9,668.3 		"/>
	</g>
</g>
<g id="_x30_5-FULL-WHITE">
	<g id="Vimeo_5_">
		<path class="st4" d="M790.2,503.8c-21,0-38,17-38,38s17,38,38,38s38-17,38-38S811.2,503.8,790.2,503.8z M801.1,548
			c-5,6.4-9.2,9.6-12.7,9.6c-2.1,0-3.9-1.9-5.4-5.9c-1-3.6-2-7.2-3-10.7c-1.1-3.9-2.3-5.9-3.5-5.9c-0.3,0-1.2,0.6-2.9,1.7l-1.7-2.2
			c1.8-1.6,3.6-3.1,5.3-4.7c2.4-2.1,4.2-3.1,5.4-3.3c2.9-0.3,4.6,1.7,5.3,5.8c0.7,4.4,1.2,7.2,1.5,8.3c0.8,3.7,1.7,5.5,2.7,5.5
			c0.8,0,1.9-1.2,3.5-3.6c1.5-2.4,2.3-4.2,2.5-5.5c0.2-2.1-0.6-3.1-2.5-3.1c-0.9,0-1.8,0.2-2.7,0.6c1.8-5.8,5.3-8.6,10.4-8.5
			c3.8,0.1,5.6,2.5,5.3,7.2C808.4,537,805.9,541.9,801.1,548z"/>
	</g>
	<g id="Instagram_5_">
		<path class="st4" d="M654.2,541.7c0-3.9,3.2-7,7-7c3.9,0,7.1,3.1,7.1,7s-3.2,7-7.1,7C657.3,548.8,654.2,545.6,654.2,541.7z"/>
		<path class="st4" d="M674.7,532.5c0,0.6-0.5,1.2-1.1,1.2h-3.7c-0.6,0-1.2-0.5-1.2-1.2v-3.7c0-0.6,0.5-1.2,1.2-1.2h3.7
			c0.6,0,1.1,0.5,1.1,1.2V532.5z"/>
		<path class="st4" d="M671.5,538.7h4.2v16.7c0,0.6-0.1,1.3-0.8,1.3h-27.5c-0.6,0-0.7-0.6-0.7-1.3v-16.7h4.2c-0.6,0-0.8,2.2-0.8,3.3
			c0,6.1,5,11,11.2,11s11.2-4.8,11.2-11C672.4,541,672.2,538.7,671.5,538.7z"/>
		<path class="st4" d="M660.2,503.8c-21,0-38,17-38,38s17,38,38,38s38-17,38-38S681.2,503.8,660.2,503.8z M679.7,555.7
			c0,2.4-2.1,4-4.5,4h-28c-2.4,0-4.5-1.6-4.5-4v-28c0-2.4,2.1-4,4.5-4h28c2.4,0,4.5,1.6,4.5,4V555.7z"/>
	</g>
	<g id="Twitter_5_">
		<path class="st4" d="M533.2,503.8c-21,0-38,17-38,38s17,38,38,38s38-17,38-38S554.2,503.8,533.2,503.8z M547.7,533.7
			c0,0.3,0,0.7,0,1c0,10.4-7.7,22.4-21.9,22.4c-4.3,0-8.4-1.3-11.8-3.5c0.6,0.1,1.2,0.1,1.8,0.1c3.6,0,6.9-1.3,9.5-3.4
			c-3.4-0.1-6.2-2.3-7.2-5.5c0.5,0.1,1,0.1,1.4,0.1c0.7,0,1.5-0.1,2.1-0.3c-3.5-0.7-6.1-3.9-6.1-7.7v0.1c1,0.6,2.1,0.9,3.4,1
			c-2.1-1.4-3.5-3.8-3.5-6.6c0-1.4,0.4-2.8,1-4c3.8,4.8,9.4,7.9,15.8,8.2c-0.1-0.6-0.2-1.2-0.2-1.8c0-4.3,3.4-7.9,7.7-7.9
			c2.2,0,4.2,1,5.6,2.5c1.8-0.4,3.4-1,4.9-1.9c-0.6,1.8-1.8,3.4-3.4,4.4c1.6-0.2,3-0.6,4.4-1.2C550.5,531.2,549.2,532.6,547.7,533.7
			z"/>
	</g>
	<g id="LinKeDin">
		<path class="st4" d="M404.2,503.8c-21,0-38,17-38,38s17,38,38,38s38-17,38-38S425.2,503.8,404.2,503.8z M394.7,558.7h-7v-23h7
			V558.7z M390.8,533.7L390.8,533.7c-2.7,0-4.3-2-4.3-4.2s1.7-4.1,4.4-4.1c2.6,0,4.3,1.9,4.3,4.1
			C395.2,531.8,393.5,533.7,390.8,533.7z M423.7,558.7h-9V547c0-3.1-1-5.2-3.8-5.2c-2.1,0-3.4,1.4-3.9,2.8c-0.2,0.5-0.2,1.2-0.2,1.9
			v12.2h-7.7c0,0,0.1-21,0-23h7.7v3.9c1-1.6,3.4-3.8,7.5-3.8c5.1,0,9.5,3.3,9.5,10.3L423.7,558.7L423.7,558.7z"/>
	</g>
	<g id="Behance_5_">
		<path class="st4" d="M267.5,539.7h-5.8v-5h5.2c1.1,0,2-0.1,2.7,0.2c0.8,0.3,1.2,0.9,1.2,2c0,0.9-0.3,1.8-0.9,2.1
			C269.2,539.3,268.4,539.7,267.5,539.7z"/>
		<path class="st4" d="M271.2,545.7c0,1.4-0.5,2.2-1.5,2.7c-0.5,0.3-1.3,0.3-2.3,0.3h-5.8v-6h5.8c1,0,1.7,0.2,2.3,0.5
			C270.8,543.6,271.2,544.5,271.2,545.7z"/>
		<path class="st4" d="M275.2,503.8c-21,0-38,17-38,38s17,38,38,38s38-17,38-38S296.2,503.8,275.2,503.8z M280.7,531.7h10v3h-10
			V531.7z M275,549.6c-0.4,0.7-1,1.3-1.6,1.8c-0.7,0.5-1.6,0.9-2.6,1.1c-1,0.2-2,0.3-3.2,0.3h-10v-22h10.7c2.8,0,4.7,0.7,5.9,2.2
			c0.7,1,1,2,1,3.3c0,1.4-0.3,2.4-1,3.2c-0.4,0.5-1,0.9-1.7,1.3c1.1,0.4,2,1.1,2.6,2s0.9,2,0.9,3.3C276,547.3,275.7,548.5,275,549.6
			z M294.1,545.7h-12.2c0.1,2,0.7,2.8,1.8,3.5c0.7,0.4,1.5,0.6,2.4,0.6c1,0,1.8-0.3,2.4-0.8c0.3-0.3,0.6-0.2,0.9-1.2h4.5
			c-0.1,1-0.7,2.1-1.6,3.1c-1.5,1.6-3.6,2.5-6.3,2.5c-2.2,0-4.2-0.7-5.9-2c-1.7-1.4-2.6-3.6-2.6-6.6c0-2.9,0.8-5,2.3-6.6
			c1.5-1.5,3.5-2.3,6-2.3c1.5,0,2.8,0.3,3.9,0.8c1.2,0.5,2.1,1.3,2.9,2.5c0.7,1,1.1,2.1,1.3,3.4
			C294.1,543.2,294.1,544.7,294.1,545.7z M285.8,539.3c-1.1,0-2,0.3-2.6,0.9c-0.6,0.6-1,1.5-1.2,2.5h7.6c-0.1-1-0.5-2-1.2-2.5
			C287.7,539.6,286.8,539.3,285.8,539.3z"/>
	</g>
	<g id="Dribbble_5_">
		<path class="st4" d="M131.9,538.5c1-4.8,4.3-8.9,8.6-10.9c0.2,0.3,3.1,4.2,5.8,9C138.8,538.5,132.3,538.5,131.9,538.5z"/>
		<path class="st4" d="M135.6,552.1c-2.5-2.8-4-6.4-4-10.5c0-0.2,0-0.3,0-0.5c0.3,0,8,0.2,16.1-2.2c0.4,0.9,0.9,1.8,1.3,2.7
			c-0.2,0.1-0.4,0.1-0.6,0.2C139.9,544.5,135.6,552.1,135.6,552.1z"/>
		<path class="st4" d="M150,544.2c2.2,5.7,3.1,10.5,3.3,11.9c-1.9,0.8-3.9,1.2-6.1,1.2c-3.6,0-7-1.2-9.6-3.3c0,0,3-6.5,12.3-9.8
			C149.9,544.2,150,544.2,150,544.2z"/>
		<path class="st4" d="M149.4,535.6c-2.7-4.9-5.6-8.8-5.8-9.1c1.2-0.3,2.4-0.5,3.7-0.5c4,0,7.6,1.5,10.3,3.9
			C157.5,530,155.3,533.4,149.4,535.6z"/>
		<path class="st4" d="M162.7,544.2c-0.7,4.4-3.2,8.1-6.7,10.5c-0.2-0.9-1-5.5-3.1-11.2C158,542.7,162.4,544.1,162.7,544.2z"/>
		<path class="st4" d="M159.3,531.7c2.2,2.7,3.5,6.1,3.6,9.8c-0.2,0-5.5-1.2-10.9-0.5c-0.1-0.3-0.2-0.5-0.3-0.8
			c-0.3-0.8-0.7-1.5-1-2.3C156.8,535.4,159.3,531.8,159.3,531.7z"/>
		<path class="st4" d="M147.2,503.8c-21,0-38,17-38,38s17,38,38,38c21,0,38-17,38-38S168.2,503.8,147.2,503.8z M165.2,545.4
			c-0.2,1.2-0.6,2.3-1.1,3.4c-0.5,1.1-1,2.1-1.7,3.1c-0.6,1-1.4,1.9-2.2,2.7c-0.8,0.8-1.7,1.6-2.7,2.2c-1,0.7-2,1.2-3.1,1.7
			s-2.3,0.8-3.5,1.1c-1.2,0.2-2.4,0.4-3.7,0.4c-1.2,0-2.5-0.1-3.7-0.4c-1.2-0.2-2.3-0.6-3.4-1.1s-2.1-1-3.1-1.7s-1.9-1.4-2.7-2.2
			c-0.8-0.8-1.6-1.7-2.2-2.7c-0.7-1-1.2-2-1.7-3.1s-0.8-2.3-1.1-3.4c-0.2-1.2-0.4-2.5-0.4-3.7s0.1-2.5,0.4-3.7
			c0.2-1.2,0.6-2.3,1.1-3.4c0.5-1.1,1-2.1,1.7-3.1s1.4-1.9,2.2-2.7c0.8-0.8,1.7-1.6,2.7-2.2c1-0.7,2-1.2,3.1-1.7s2.3-0.8,3.4-1.1
			c1.2-0.2,2.5-0.4,3.7-0.4s2.5,0.1,3.7,0.4c1.2,0.2,2.3,0.6,3.5,1.1c1.1,0.5,2.1,1,3.1,1.7s1.9,1.4,2.7,2.2
			c0.8,0.8,1.6,1.7,2.2,2.7c0.7,1,1.2,2,1.7,3.1s0.8,2.3,1.1,3.4c0.2,1.2,0.4,2.5,0.4,3.7S165.4,544.2,165.2,545.4z"/>
	</g>
	<g id="Facebook_4_">
		<path class="st4" d="M18.2,502.4c-21,0-38,17-38,38s17,38,38,38s38-17,38-38S39.2,502.4,18.2,502.4z M36.7,556.4
			c0,1.1-0.5,2.3-1.7,2.3h-9.3v-14h4.8l0.7-6h-5.5v-3.6c0-1.6,0.4-2.4,2.7-2.4h3.3v-5.2c-1-0.1-2.6-0.2-4.6-0.2
			c-4.2,0-7.4,2.6-7.4,7.3v4.1h-5v6h5v14H2.4c-1.1,0-1.7-1.2-1.7-2.3v-32.7c0-1.1,0.6-2,1.7-2h32.7c1.1,0,1.7,0.9,1.7,2v32.7H36.7z"
			/>
	</g>
	<g id="Google_x2B__3_">
		<path class="st4" d="M-111.1,502.5c-21,0-38,17-38,38s17,38,38,38s38-17,38-38S-90.1,502.5-111.1,502.5z M-118.5,553.8
			c-7.1,0-12.8-5.9-12.8-13s5.7-12.9,12.8-12.9c3.3,0,6.4,1.2,8.6,3.3c-2.7,2.5-2.6,2.7-3.6,3.7c-1.3-1.1-2.8-1.9-5-1.9
			c-4.2,0-7.5,3.4-7.5,7.6c0,4.2,3.3,7.9,7.5,7.9s5.8-1.8,6.9-4.8c-2,0-6.8,0-6.8,0v-5h12.2C-105.3,544.7-107.9,553.8-118.5,553.8z
			 M-91.3,541.7h-4v5h-3v-5h-5v-3h5v-4h3v4h4V541.7z"/>
	</g>
</g>
<g id="_x30_4-FULL-COLOR">
	<g id="Vimeo_6_">
		<circle class="st5" cx="790.2" cy="409.8" r="38"/>
		<g id="Vimeo_2_">
			<path class="st4" d="M803.2,394.3c-5.1-0.2-8.5,2.7-10.4,8.5c0.9-0.4,1.8-0.6,2.7-0.6c1.9,0,2.7,1,2.5,3.1
				c-0.1,1.3-0.9,3.1-2.5,5.5c-1.5,2.4-2.7,3.6-3.5,3.6c-1,0-1.9-1.8-2.7-5.5c-0.3-1.1-0.8-3.8-1.5-8.3c-0.7-4.1-2.4-6-5.3-5.8
				c-1.2,0.1-3,1.2-5.4,3.3c-1.8,1.6-3.5,3.1-5.3,4.7l1.7,2.2c1.6-1.1,2.6-1.7,2.9-1.7c1.3,0,2.4,2,3.5,5.9c1,3.6,2,7.2,3,10.7
				c1.5,3.9,3.3,5.8,5.4,5.8c3.5,0,7.7-3.2,12.7-9.6c4.8-6.1,7.3-10.9,7.5-14.5C808.8,396.8,807,394.4,803.2,394.3z"/>
		</g>
	</g>
	<g id="Instagram_6_">
		<circle class="st6" cx="660.2" cy="409.8" r="38"/>
		<path id="Instagram_2_" class="st4" d="M675.2,391.4h-27.9c-2.4,0-4.4,1.9-4.4,4.3v28c0,2.4,2,4.3,4.4,4.3h27.9
			c2.4,0,4.4-1.9,4.4-4.3v-28C679.5,393.3,677.6,391.4,675.2,391.4z M669.2,397.1c0-0.6,0.5-1.1,1.1-1.1h3.4c0.6,0,1.1,0.5,1.1,1.1
			v3.4c0,0.6-0.5,1.1-1.1,1.1h-3.4c-0.6,0-1.1-0.5-1.1-1.1V397.1z M661.2,402.7c3.9,0,7.1,3.1,7.1,7s-3.2,7-7.1,7c-3.9,0-7-3.1-7-7
			C654.2,405.9,657.3,402.7,661.2,402.7z M676.1,423.4c0,0.6-0.5,1.1-1.1,1.1h-27.5c-0.6,0-1.1-0.5-1.1-1.1v-17.2h4.6
			c-0.6,0.9-0.8,2.5-0.8,3.5c0,6.1,5,11.1,11.2,11.1s11.2-5,11.2-11.1c0-1-0.1-2.6-0.9-3.5h4.6v17.2H676.1z"/>
	</g>
	<g id="Twitter_6_">
		<circle class="st3" cx="533.2" cy="409.8" r="38"/>
		<path id="Twitter_2_" class="st4" d="M550.5,394.6c-1.5,0.9-3.1,1.6-4.9,1.9c-1.4-1.5-3.4-2.5-5.6-2.5c-4.2,0-7.7,3.5-7.7,7.9
			c0,0.6,0.1,1.2,0.2,1.8c-6.4-0.3-12-3.5-15.8-8.2c-0.7,1.2-1,2.5-1,4c0,2.7,1.4,5.1,3.4,6.6c-1.3,0-2.4-0.4-3.5-1v0.1
			c0,3.8,2.6,7,6.2,7.7c-0.6,0.2-1.3,0.3-2,0.3c-0.5,0-1,0-1.4-0.1c1,3.1,3.8,5.4,7.2,5.5c-2.6,2.1-5.9,3.4-9.5,3.4
			c-0.6,0-1.2,0-1.8-0.1c3.4,2.2,7.4,3.5,11.8,3.5c14.1,0,21.9-12,21.9-22.4c0-0.3,0-0.7,0-1c1.5-1.1,2.8-2.5,3.8-4.1
			c-1.4,0.6-2.9,1.1-4.4,1.2C548.7,397.9,549.9,396.4,550.5,394.6z"/>
	</g>
	<g id="LinKeDin_1_">
		<circle class="st7" cx="404.2" cy="409.8" r="38"/>
		<g id="LinkedIn_2_">
			<rect x="387.4" y="404.1" class="st4" width="7.2" height="22.8"/>
			<path class="st4" d="M414.2,403.8c-4.1,0-6.7,2.2-7.2,3.8V404h-8.1c0.1,1.9,0,22.8,0,22.8h8.1v-12.3c0-0.7,0-1.4,0.2-1.9
				c0.6-1.4,1.7-2.8,3.9-2.8c2.8,0,4.1,2.1,4.1,5.2v11.8h8.2v-12.7C423.3,407.1,419.3,403.8,414.2,403.8z"/>
			<path class="st4" d="M390.8,393.3c-2.7,0-4.4,1.7-4.4,4c0,2.2,1.7,3.9,4.3,3.9h0.1c2.7,0,4.4-1.7,4.4-4
				C395.1,395,393.5,393.3,390.8,393.3z"/>
		</g>
	</g>
	<g id="Behance_6_">
		<circle class="st8" cx="275.2" cy="409.8" r="38"/>
		<g id="Behance_2_">
			<path class="st4" d="M272.5,408.8c0.8-0.4,1.3-0.8,1.7-1.3c0.7-0.8,1-1.9,1-3.3c0-1.3-0.3-2.5-1-3.4c-1.2-1.5-3.1-2.3-5.9-2.4
				h-10.9v22.3h10.2c1.2,0,2.2-0.1,3.2-0.3s1.8-0.6,2.6-1.1c0.6-0.5,1.2-1.1,1.6-1.8c0.7-1,1-2.2,1-3.6c0-1.3-0.3-2.4-0.9-3.3
				C274.5,409.8,273.7,409.2,272.5,408.8z M262,402.3h4.9c1.1,0,2,0.1,2.7,0.3c0.8,0.3,1.2,1,1.2,2.1c0,0.9-0.3,1.6-0.9,2
				c-0.6,0.4-1.4,0.6-2.4,0.6H262V402.3z M269.8,416.5c-0.5,0.3-1.3,0.4-2.3,0.4H262v-6h5.6c1,0,1.7,0.1,2.3,0.4
				c1,0.4,1.4,1.2,1.4,2.4C271.2,415.1,270.7,416,269.8,416.5z"/>
			<rect x="280.9" y="399.5" class="st4" width="9.7" height="2.8"/>
			<path class="st4" d="M292.6,407c-0.8-1.1-1.7-1.9-2.9-2.4s-2.5-0.8-3.9-0.8c-2.5,0-4.4,0.8-6,2.3c-1.5,1.5-2.3,3.7-2.3,6.6
				c0,3.1,0.8,5.3,2.6,6.6c1.7,1.4,3.7,2,5.9,2c2.7,0,4.8-0.8,6.3-2.4c1-1,1.5-2,1.6-3h-4.5c-0.3,0.5-0.6,0.9-0.9,1.1
				c-0.6,0.5-1.4,0.8-2.4,0.8c-0.9,0-1.7-0.2-2.4-0.6c-1.1-0.7-1.7-1.8-1.8-3.5h12.2c0-1.4,0-2.5-0.1-3.3
				C293.7,409.1,293.3,408,292.6,407z M282,410.9c0.2-1.1,0.5-1.9,1.2-2.6c0.6-0.6,1.5-0.9,2.6-0.9c1,0,1.9,0.3,2.6,0.9
				c0.7,0.6,1.1,1.5,1.2,2.6H282z"/>
		</g>
	</g>
	<g id="Dribbble_6_">
		<circle class="st9" cx="147.2" cy="409.8" r="38"/>
		<g>
			<path id="Dribbble_2_" class="st4" d="M164.1,402.6c-0.5-1.1-1-2.1-1.7-3.1s-1.4-1.9-2.2-2.7c-0.8-0.8-1.7-1.6-2.7-2.2
				c-1-0.7-2-1.2-3.1-1.7s-2.3-0.8-3.4-1.1c-1.2-0.2-2.4-0.4-3.7-0.4c-1.2,0-2.5,0.1-3.7,0.4c-1.2,0.2-2.3,0.6-3.4,1.1
				s-2.1,1-3.1,1.7s-1.9,1.4-2.7,2.2c-0.8,0.8-1.6,1.7-2.2,2.7c-0.7,1-1.2,2-1.7,3.1s-0.8,2.3-1.1,3.4c-0.2,1.2-0.4,2.4-0.4,3.7
				c0,1.2,0.1,2.5,0.4,3.7c0.2,1.2,0.6,2.3,1.1,3.4c0.5,1.1,1,2.1,1.7,3.1s1.4,1.9,2.2,2.7c0.8,0.8,1.7,1.6,2.7,2.2
				c1,0.7,2,1.2,3.1,1.7s2.3,0.8,3.4,1.1c1.2,0.3,2.4,0.4,3.7,0.4c1.2,0,2.5-0.1,3.7-0.4c1.2-0.2,2.3-0.6,3.4-1.1s2.1-1,3.1-1.7
				s1.9-1.4,2.7-2.2c0.8-0.8,1.6-1.7,2.2-2.7c0.7-1,1.2-2,1.7-3.1s0.8-2.3,1.1-3.4c0.2-1.2,0.4-2.4,0.4-3.7c0-1.2-0.1-2.5-0.4-3.7
				C164.9,404.8,164.6,403.7,164.1,402.6z M147.2,394c4,0,7.6,1.5,10.3,3.9c0,0.1-2.3,3.5-8.2,5.7c-2.7-4.9-5.6-8.8-5.9-9.1
				C144.7,394.2,146,394,147.2,394z M143.5,394.5L143.5,394.5L143.5,394.5C143.4,394.5,143.5,394.5,143.5,394.5z M140.5,395.5
				c0.2,0.3,3.1,4.2,5.8,9c-7.5,2-14,1.9-14.5,1.9C132.9,401.6,136.2,397.6,140.5,395.5z M135.6,420.2c-2.5-2.8-4-6.4-4-10.5
				c0-0.2,0-0.3,0-0.5c0.3,0,8,0.2,16.1-2.2c0.4,0.9,0.9,1.8,1.3,2.7c-0.2,0.1-0.4,0.1-0.6,0.2C139.9,412.5,135.6,420.1,135.6,420.2
				C135.6,420.1,135.6,420.2,135.6,420.2z M147.2,425.4c-3.7,0-7.1-1.3-9.8-3.4c-0.1,0-0.1-0.1-0.2-0.2c0.1,0.1,0.1,0.1,0.2,0.2
				c0.1,0.1,0.2,0.1,0.2,0.1s3-6.5,12.3-9.8h0.1c2.2,5.7,3.1,10.5,3.3,11.9C151.5,424.9,149.4,425.4,147.2,425.4z M156,422.7
				c-0.2-0.9-1-5.5-3-11.2c5.1-0.8,9.4,0.6,9.8,0.7C162,416.5,159.5,420.3,156,422.7z M152,409c-0.1-0.3-0.2-0.5-0.3-0.8
				c-0.3-0.8-0.7-1.5-1-2.3c6.2-2.5,8.7-6.2,8.7-6.2c2.2,2.7,3.5,6.1,3.6,9.8C162.7,409.5,157.4,408.3,152,409z"/>
		</g>
	</g>
	<g id="Facebook_5_">
		<path class="st10" d="M18.2,371.8c-21,0-38,17-38,38s17,38,38,38s38-17,38-38S39.2,371.8,18.2,371.8z M36.7,425.8
			c0,1.1-0.5,1.9-1.7,1.9h-9.3v-14h4.8l0.7-6h-5.5v-3.1c0-1.6,0.4-2.9,2.7-2.9h3.3v-4.8c-1-0.1-2.6-0.2-4.6-0.2
			c-4.2,0-7.4,2.6-7.4,7.3v3.7h-5v6h5v14H2.4c-1.1,0-1.7-0.7-1.7-1.9v-32.7c0-1.1,0.6-2.5,1.7-2.5h32.7c1.1,0,1.7,1.4,1.7,2.5v32.7
			H36.7z"/>
	</g>
	<g id="Google_x2B__4_">
		<path class="st11" d="M-111.1,371.8c-21,0-38,17-38,38s17,38,38,38s38-17,38-38S-90.1,371.8-111.1,371.8z M-118.5,422.9
			c-7.1,0-12.8-5.8-12.8-12.9c0-7.1,5.7-12.9,12.8-12.9c3.3,0,6.4,1.3,8.6,3.3c-2.7,2.5-2.6,2.7-3.6,3.7c-1.3-1.1-2.8-1.9-5-1.9
			c-4.2,0-7.5,3.4-7.5,7.6c0,4.2,3.3,7.7,7.5,7.7s5.8-2,6.9-5c-2,0-6.8,0-6.8,0v-5h12.2C-105.3,413.7-107.9,422.9-118.5,422.9z
			 M-91.3,410.7h-4v5h-3v-5h-5v-3h5v-4h3v4h4V410.7z"/>
	</g>
</g>
<g id="_x30_3-SINGLE-COLOR">
	<path id="Vimeo_4_" class="st5" d="M803.2,266c-5.1-0.2-8.5,2.7-10.4,8.5c0.9-0.4,1.8-0.6,2.7-0.6c1.9,0,2.7,1,2.5,3.1
		c-0.1,1.3-0.9,3.1-2.5,5.5c-1.5,2.4-2.7,3.6-3.5,3.6c-1,0-1.9-1.8-2.7-5.5c-0.3-1.1-0.8-3.8-1.5-8.3c-0.7-4.1-2.4-6-5.3-5.8
		c-1.2,0.1-3,1.2-5.4,3.3c-1.8,1.6-3.5,3.1-5.3,4.7l1.7,2.2c1.6-1.1,2.6-1.7,2.9-1.7c1.3,0,2.4,2,3.5,5.9c1,3.6,2,7.2,3,10.7
		c1.5,3.9,3.3,5.8,5.4,5.8c3.5,0,7.7-3.2,12.7-9.6c4.8-6.1,7.3-10.9,7.5-14.5C808.8,268.6,807,266.2,803.2,266z"/>
	<path id="Instagram_4_" class="st6" d="M675.2,263.1h-27.9c-2.4,0-4.4,1.9-4.4,4.3v28c0,2.4,2,4.3,4.4,4.3h27.9
		c2.4,0,4.4-1.9,4.4-4.3v-28C679.5,265.1,677.6,263.1,675.2,263.1z M669.2,268.9c0-0.6,0.5-1.1,1.1-1.1h3.4c0.6,0,1.1,0.5,1.1,1.1
		v3.4c0,0.6-0.5,1.1-1.1,1.1h-3.4c-0.6,0-1.1-0.5-1.1-1.1V268.9z M661.2,274.5c3.9,0,7.1,3.1,7.1,7s-3.2,7-7.1,7c-3.9,0-7-3.1-7-7
		S657.3,274.5,661.2,274.5z M676.1,295.2c0,0.6-0.5,1.1-1.1,1.1h-27.5c-0.6,0-1.1-0.5-1.1-1.1V278h4.6c-0.6,0.9-0.8,2.5-0.8,3.5
		c0,6.1,5,11.1,11.2,11.1s11.2-5,11.2-11.1c0-1-0.1-2.6-0.9-3.5h4.6v17.2H676.1z"/>
	<path id="Twitter_4_" class="st3" d="M550.5,266.3c-1.5,0.9-3.1,1.6-4.9,1.9c-1.4-1.5-3.4-2.5-5.6-2.5c-4.2,0-7.7,3.5-7.7,7.9
		c0,0.6,0.1,1.2,0.2,1.8c-6.4-0.3-12-3.5-15.8-8.2c-0.7,1.2-1,2.5-1,4c0,2.7,1.4,5.1,3.4,6.6c-1.3,0-2.4-0.4-3.5-1v0.1
		c0,3.8,2.6,7,6.2,7.7c-0.6,0.2-1.3,0.3-2,0.3c-0.5,0-1,0-1.4-0.1c1,3.1,3.8,5.4,7.2,5.5c-2.6,2.1-5.9,3.4-9.5,3.4
		c-0.6,0-1.2,0-1.8-0.1c3.4,2.2,7.4,3.5,11.8,3.5c14.1,0,21.9-12,21.9-22.4c0-0.3,0-0.7,0-1c1.5-1.1,2.8-2.5,3.8-4.1
		c-1.4,0.6-2.9,1.1-4.4,1.2C548.7,269.7,549.9,268.2,550.5,266.3z"/>
	<g id="LinkedIn_4_">
		<rect x="387.4" y="275.8" class="st7" width="7.2" height="22.8"/>
		<path class="st7" d="M414.2,275.6c-4.1,0-6.7,2.2-7.2,3.8v-3.6h-8.1c0.1,1.9,0,22.8,0,22.8h8.1v-12.3c0-0.7,0-1.4,0.2-1.9
			c0.6-1.4,1.7-2.8,3.9-2.8c2.8,0,4.1,2.1,4.1,5.2v11.8h8.2v-12.7C423.3,278.9,419.3,275.6,414.2,275.6z"/>
		<path class="st7" d="M390.8,265.1c-2.7,0-4.4,1.7-4.4,4c0,2.2,1.7,3.9,4.3,3.9h0.1c2.7,0,4.4-1.7,4.4-4
			C395.1,266.8,393.5,265.1,390.8,265.1z"/>
	</g>
	<g id="Behance_4_">
		<path class="st8" d="M272.5,280.5c0.8-0.4,1.3-0.8,1.7-1.3c0.7-0.8,1-1.9,1-3.3c0-1.3-0.3-2.5-1-3.4c-1.2-1.5-3.1-2.3-5.9-2.4
			h-10.9v22.3h10.2c1.2,0,2.2-0.1,3.2-0.3c1-0.2,1.8-0.6,2.6-1.1c0.6-0.5,1.2-1.1,1.6-1.8c0.7-1,1-2.2,1-3.6c0-1.3-0.3-2.4-0.9-3.3
			C274.5,281.6,273.7,280.9,272.5,280.5z M262,274.1h4.9c1.1,0,2,0.1,2.7,0.3c0.8,0.3,1.2,1,1.2,2.1c0,0.9-0.3,1.6-0.9,2
			c-0.6,0.4-1.4,0.6-2.4,0.6H262V274.1z M269.8,288.2c-0.5,0.3-1.3,0.4-2.3,0.4H262v-6h5.6c1,0,1.7,0.1,2.3,0.4
			c1,0.4,1.4,1.2,1.4,2.4C271.2,286.8,270.7,287.8,269.8,288.2z"/>
		<rect x="280.9" y="271.2" class="st8" width="9.7" height="2.8"/>
		<path class="st8" d="M292.6,278.8c-0.8-1.1-1.7-1.9-2.9-2.4s-2.5-0.8-3.9-0.8c-2.5,0-4.4,0.8-6,2.3c-1.5,1.5-2.3,3.7-2.3,6.6
			c0,3.1,0.8,5.3,2.6,6.6c1.7,1.4,3.7,2,5.9,2c2.7,0,4.8-0.8,6.3-2.4c1-1,1.5-2,1.6-3h-4.5c-0.3,0.5-0.6,0.9-0.9,1.1
			c-0.6,0.5-1.4,0.8-2.4,0.8c-0.9,0-1.7-0.2-2.4-0.6c-1.1-0.7-1.7-1.8-1.8-3.5h12.2c0-1.4,0-2.5-0.1-3.3
			C293.7,280.9,293.3,279.8,292.6,278.8z M282,282.6c0.2-1.1,0.5-1.9,1.2-2.6c0.6-0.6,1.5-0.9,2.6-0.9c1,0,1.9,0.3,2.6,0.9
			c0.7,0.6,1.1,1.5,1.2,2.6H282z"/>
	</g>
	<path id="Dribbble_4_" class="st9" d="M164.1,274.3c-0.5-1.1-1-2.1-1.7-3.1s-1.4-1.9-2.2-2.7c-0.8-0.8-1.7-1.6-2.7-2.2
		c-1-0.7-2-1.2-3.1-1.7s-2.3-0.8-3.4-1.1c-1.2-0.2-2.4-0.4-3.7-0.4c-1.2,0-2.5,0.1-3.7,0.4c-1.2,0.2-2.3,0.6-3.4,1.1s-2.1,1-3.1,1.7
		s-1.9,1.4-2.7,2.2c-0.8,0.8-1.6,1.7-2.2,2.7c-0.7,1-1.2,2-1.7,3.1s-0.8,2.3-1.1,3.4c-0.2,1.2-0.4,2.4-0.4,3.7
		c0,1.2,0.1,2.5,0.4,3.7c0.2,1.2,0.6,2.3,1.1,3.4s1,2.1,1.7,3.1s1.4,1.9,2.2,2.7c0.8,0.8,1.7,1.6,2.7,2.2c1,0.7,2,1.2,3.1,1.7
		s2.3,0.8,3.4,1.1c1.2,0.3,2.4,0.4,3.7,0.4c1.2,0,2.5-0.1,3.7-0.4c1.2-0.2,2.3-0.6,3.4-1.1s2.1-1,3.1-1.7s1.9-1.4,2.7-2.2
		c0.8-0.8,1.6-1.7,2.2-2.7c0.7-1,1.2-2,1.7-3.1s0.8-2.3,1.1-3.4c0.2-1.2,0.4-2.4,0.4-3.7c0-1.2-0.1-2.5-0.4-3.7
		C164.9,276.6,164.6,275.4,164.1,274.3z M147.2,265.8c4,0,7.6,1.5,10.3,3.9c0,0.1-2.3,3.5-8.2,5.7c-2.7-4.9-5.6-8.8-5.9-9.1
		C144.7,266,146,265.8,147.2,265.8z M143.5,266.2C143.5,266.3,143.5,266.3,143.5,266.2C143.5,266.3,143.5,266.3,143.5,266.2
		C143.4,266.3,143.5,266.3,143.5,266.2z M140.5,267.3c0.2,0.3,3.1,4.2,5.8,9c-7.5,2-14,1.9-14.5,1.9
		C132.9,273.4,136.2,269.4,140.5,267.3z M135.6,291.9c-2.5-2.8-4-6.4-4-10.5c0-0.2,0-0.3,0-0.5c0.3,0,8,0.2,16.1-2.2
		c0.4,0.9,0.9,1.8,1.3,2.7c-0.2,0.1-0.4,0.1-0.6,0.2C139.9,284.3,135.6,291.9,135.6,291.9L135.6,291.9z M147.2,297.1
		c-3.7,0-7.1-1.3-9.8-3.4c-0.1,0-0.1-0.1-0.2-0.2c0.1,0.1,0.1,0.1,0.2,0.2s0.2,0.1,0.2,0.1s3-6.5,12.3-9.8h0.1
		c2.2,5.7,3.1,10.5,3.3,11.9C151.5,296.7,149.4,297.1,147.2,297.1z M156,294.4c-0.2-0.9-1-5.5-3-11.2c5.1-0.8,9.4,0.6,9.8,0.7
		C162,288.3,159.5,292.1,156,294.4z M152,280.8c-0.1-0.3-0.2-0.5-0.3-0.8c-0.3-0.8-0.7-1.5-1-2.3c6.2-2.5,8.7-6.2,8.7-6.2
		c2.2,2.7,3.5,6.1,3.6,9.8C162.7,281.2,157.4,280.1,152,280.8z"/>
	<path id="Facebook_3_" class="st10" d="M36.8,297.6c0,1.1-0.9,2-2,2h-9.4v-14.2h4.8l0.7-5.5h-5.5v-3.5c0-1.6,0.4-2.7,2.7-2.7H31v-5
		c-0.5-0.1-2.2-0.2-4.3-0.2c-4.2,0-7.1,2.6-7.1,7.3v4.1h-4.8v5.5h4.8v14.2H2c-1.1,0-2-0.9-2-2V265c0-1.1,0.9-2,2-2h32.7
		c1.1,0,2,0.9,2,2L36.8,297.6L36.8,297.6z"/>
	<g id="Google_x2B__1_">
		<path class="st11" d="M-118.5,279.2v5.1c0,0,4.9,0,6.9,0c-1.1,3.3-2.8,5.1-6.9,5.1c-4.2,0-7.5-3.4-7.5-7.6s3.3-7.6,7.5-7.6
			c2.2,0,3.7,0.8,5,1.9c1.1-1.1,1-1.2,3.6-3.7c-2.3-2.1-5.3-3.3-8.6-3.3c-7.1,0-12.8,5.7-12.8,12.8c0,7.1,5.7,12.8,12.8,12.8
			c10.6,0,13.2-9.2,12.3-15.4L-118.5,279.2L-118.5,279.2z"/>
		<polygon class="st11" points="-95.4,279.5 -95.4,275 -98.5,275 -98.5,279.5 -103.1,279.5 -103.1,282.6 -98.5,282.6 -98.5,287.2 
			-95.4,287.2 -95.4,282.6 -90.9,282.6 -90.9,279.5 		"/>
	</g>
</g>
<g id="_x30_2-CIRCLE-COLOR">
	<g id="Vimeo_7_">
		<g id="Vimeo_1_">
			<path class="st5" d="M803.2,136.3c-5.1-0.2-8.5,2.7-10.4,8.5c0.9-0.4,1.8-0.6,2.7-0.6c1.9,0,2.7,1,2.5,3.1
				c-0.1,1.3-0.9,3.1-2.5,5.5c-1.5,2.4-2.7,3.6-3.5,3.6c-1,0-1.9-1.8-2.7-5.5c-0.3-1.1-0.8-3.8-1.5-8.3c-0.7-4.1-2.4-6-5.3-5.8
				c-1.2,0.1-3,1.2-5.4,3.3c-1.8,1.6-3.5,3.1-5.3,4.7l1.7,2.2c1.6-1.1,2.6-1.7,2.9-1.7c1.3,0,2.4,2,3.5,5.9c1,3.6,2,7.2,3,10.7
				c1.5,3.9,3.3,5.8,5.4,5.8c3.5,0,7.7-3.2,12.7-9.6c4.8-6.1,7.3-10.9,7.5-14.5C808.8,138.8,807,136.4,803.2,136.3z"/>
		</g>
		<path class="st5" d="M790.2,191.3c-21.8,0-39.5-17.7-39.5-39.5s17.7-39.5,39.5-39.5s39.5,17.7,39.5,39.5S812,191.3,790.2,191.3z
			 M790.2,115.3c-20.1,0-36.5,16.4-36.5,36.5s16.4,36.5,36.5,36.5s36.5-16.4,36.5-36.5S810.3,115.3,790.2,115.3z"/>
	</g>
	<g id="Instagram_7_">
		<path id="Instagram_1_" class="st6" d="M675.2,133.4h-27.9c-2.4,0-4.4,1.9-4.4,4.3v28c0,2.4,2,4.3,4.4,4.3h27.9
			c2.4,0,4.4-1.9,4.4-4.3v-28C679.5,135.3,677.6,133.4,675.2,133.4z M669.2,139.1c0-0.6,0.5-1.1,1.1-1.1h3.4c0.6,0,1.1,0.5,1.1,1.1
			v3.4c0,0.6-0.5,1.1-1.1,1.1h-3.4c-0.6,0-1.1-0.5-1.1-1.1V139.1z M661.2,144.7c3.9,0,7.1,3.1,7.1,7s-3.2,7-7.1,7c-3.9,0-7-3.1-7-7
			C654.2,147.9,657.3,144.7,661.2,144.7z M676.1,165.4c0,0.6-0.5,1.1-1.1,1.1h-27.5c-0.6,0-1.1-0.5-1.1-1.1v-17.2h4.6
			c-0.6,0.9-0.8,2.5-0.8,3.5c0,6.1,5,11.1,11.2,11.1s11.2-5,11.2-11.1c0-1-0.1-2.6-0.9-3.5h4.6v17.2H676.1z"/>
		<path class="st6" d="M660.2,191.3c-21.8,0-39.5-17.7-39.5-39.5s17.7-39.5,39.5-39.5c21.8,0,39.5,17.7,39.5,39.5
			S682,191.3,660.2,191.3z M660.2,115.3c-20.1,0-36.5,16.4-36.5,36.5s16.4,36.5,36.5,36.5s36.5-16.4,36.5-36.5
			S680.3,115.3,660.2,115.3z"/>
	</g>
	<g id="Twitter_7_">
		<path id="Twitter_1_" class="st3" d="M550.5,136.6c-1.5,0.9-3.1,1.6-4.9,1.9c-1.4-1.5-3.4-2.5-5.6-2.5c-4.2,0-7.7,3.5-7.7,7.9
			c0,0.6,0.1,1.2,0.2,1.8c-6.4-0.3-12-3.5-15.8-8.2c-0.7,1.2-1,2.5-1,4c0,2.7,1.4,5.1,3.4,6.6c-1.3,0-2.4-0.4-3.5-1v0.1
			c0,3.8,2.6,7,6.2,7.7c-0.6,0.2-1.3,0.3-2,0.3c-0.5,0-1,0-1.4-0.1c1,3.1,3.8,5.4,7.2,5.5c-2.6,2.1-5.9,3.4-9.5,3.4
			c-0.6,0-1.2,0-1.8-0.1c3.4,2.2,7.4,3.5,11.8,3.5c14.1,0,21.9-12,21.9-22.4c0-0.3,0-0.7,0-1c1.5-1.1,2.8-2.5,3.8-4.1
			c-1.4,0.6-2.9,1.1-4.4,1.2C548.7,139.9,549.9,138.4,550.5,136.6z"/>
		<path class="st3" d="M533.2,191.3c-21.8,0-39.5-17.7-39.5-39.5s17.7-39.5,39.5-39.5s39.5,17.7,39.5,39.5S555,191.3,533.2,191.3z
			 M533.2,115.3c-20.1,0-36.5,16.4-36.5,36.5s16.4,36.5,36.5,36.5s36.5-16.4,36.5-36.5S553.3,115.3,533.2,115.3z"/>
	</g>
	<g id="LinKeDin_2_">
		<g id="LinkedIn_1_">
			<rect x="387.4" y="146.1" class="st7" width="7.2" height="22.8"/>
			<path class="st7" d="M414.2,145.8c-4.1,0-6.7,2.2-7.2,3.8V146h-8.1c0.1,1.9,0,22.8,0,22.8h8.1v-12.3c0-0.7,0-1.4,0.2-1.9
				c0.6-1.4,1.7-2.8,3.9-2.8c2.8,0,4.1,2.1,4.1,5.2v11.8h8.2v-12.7C423.3,149.1,419.3,145.8,414.2,145.8z"/>
			<path class="st7" d="M390.8,135.3c-2.7,0-4.4,1.7-4.4,4c0,2.2,1.7,3.9,4.3,3.9h0.1c2.7,0,4.4-1.7,4.4-4
				C395.1,137,393.5,135.3,390.8,135.3z"/>
		</g>
		<path class="st7" d="M404.2,191.3c-21.8,0-39.5-17.7-39.5-39.5s17.7-39.5,39.5-39.5s39.5,17.7,39.5,39.5S426,191.3,404.2,191.3z
			 M404.2,115.3c-20.1,0-36.5,16.4-36.5,36.5s16.4,36.5,36.5,36.5s36.5-16.4,36.5-36.5S424.3,115.3,404.2,115.3z"/>
	</g>
	<g id="Behance_7_">
		<g id="Behance_1_">
			<path class="st8" d="M272.5,150.8c0.8-0.4,1.3-0.8,1.7-1.3c0.7-0.8,1-1.9,1-3.3c0-1.3-0.3-2.5-1-3.4c-1.2-1.5-3.1-2.3-5.9-2.4
				h-10.9v22.3h10.2c1.2,0,2.2-0.1,3.2-0.3c1-0.2,1.8-0.6,2.6-1.1c0.6-0.5,1.2-1.1,1.6-1.8c0.7-1,1-2.2,1-3.6c0-1.3-0.3-2.4-0.9-3.3
				C274.5,151.8,273.7,151.2,272.5,150.8z M262,144.3h4.9c1.1,0,2,0.1,2.7,0.3c0.8,0.3,1.2,1,1.2,2.1c0,0.9-0.3,1.6-0.9,2
				c-0.6,0.4-1.4,0.6-2.4,0.6H262V144.3z M269.8,158.5c-0.5,0.3-1.3,0.4-2.3,0.4H262v-6h5.6c1,0,1.7,0.1,2.3,0.4
				c1,0.4,1.4,1.2,1.4,2.4C271.2,157.1,270.7,158,269.8,158.5z"/>
			<rect x="280.9" y="141.5" class="st8" width="9.7" height="2.8"/>
			<path class="st8" d="M292.6,149c-0.8-1.1-1.7-1.9-2.9-2.4s-2.5-0.8-3.9-0.8c-2.5,0-4.4,0.8-6,2.3c-1.5,1.5-2.3,3.7-2.3,6.6
				c0,3.1,0.8,5.3,2.6,6.6c1.7,1.4,3.7,2,5.9,2c2.7,0,4.8-0.8,6.3-2.4c1-1,1.5-2,1.6-3h-4.5c-0.3,0.5-0.6,0.9-0.9,1.1
				c-0.6,0.5-1.4,0.8-2.4,0.8c-0.9,0-1.7-0.2-2.4-0.6c-1.1-0.7-1.7-1.8-1.8-3.5h12.2c0-1.4,0-2.5-0.1-3.3
				C293.7,151.1,293.3,150,292.6,149z M282,152.9c0.2-1.1,0.5-1.9,1.2-2.6c0.6-0.6,1.5-0.9,2.6-0.9c1,0,1.9,0.3,2.6,0.9
				c0.7,0.6,1.1,1.5,1.2,2.6H282z"/>
		</g>
		<path class="st8" d="M275.2,191.3c-21.8,0-39.5-17.7-39.5-39.5s17.7-39.5,39.5-39.5s39.5,17.7,39.5,39.5S297,191.3,275.2,191.3z
			 M275.2,115.3c-20.1,0-36.5,16.4-36.5,36.5s16.4,36.5,36.5,36.5s36.5-16.4,36.5-36.5S295.3,115.3,275.2,115.3z"/>
	</g>
	<g id="Dribbble_7_">
		<g>
			<path id="Dribbble_1_" class="st9" d="M164.1,144.6c-0.5-1.1-1-2.1-1.7-3.1s-1.4-1.9-2.2-2.7c-0.8-0.8-1.7-1.6-2.7-2.2
				c-1-0.7-2-1.2-3.1-1.7s-2.3-0.8-3.4-1.1c-1.2-0.2-2.4-0.4-3.7-0.4c-1.2,0-2.5,0.1-3.7,0.4c-1.2,0.2-2.3,0.6-3.4,1.1
				s-2.1,1-3.1,1.7s-1.9,1.4-2.7,2.2c-0.8,0.8-1.6,1.7-2.2,2.7c-0.7,1-1.2,2-1.7,3.1s-0.8,2.3-1.1,3.4c-0.2,1.2-0.4,2.4-0.4,3.7
				c0,1.2,0.1,2.5,0.4,3.7c0.2,1.2,0.6,2.3,1.1,3.4s1,2.1,1.7,3.1s1.4,1.9,2.2,2.7c0.8,0.8,1.7,1.6,2.7,2.2c1,0.7,2,1.2,3.1,1.7
				s2.3,0.8,3.4,1.1c1.2,0.3,2.4,0.4,3.7,0.4c1.2,0,2.5-0.1,3.7-0.4c1.2-0.2,2.3-0.6,3.4-1.1s2.1-1,3.1-1.7s1.9-1.4,2.7-2.2
				c0.8-0.8,1.6-1.7,2.2-2.7c0.7-1,1.2-2,1.7-3.1s0.8-2.3,1.1-3.4c0.2-1.2,0.4-2.4,0.4-3.7c0-1.2-0.1-2.5-0.4-3.7
				C164.9,146.8,164.6,145.7,164.1,144.6z M147.2,136c4,0,7.6,1.5,10.3,3.9c0,0.1-2.3,3.5-8.2,5.7c-2.7-4.9-5.6-8.8-5.9-9.1
				C144.7,136.2,146,136,147.2,136z M143.5,136.5L143.5,136.5L143.5,136.5C143.4,136.5,143.5,136.5,143.5,136.5z M140.5,137.5
				c0.2,0.3,3.1,4.2,5.8,9c-7.5,2-14,1.9-14.5,1.9C132.9,143.6,136.2,139.6,140.5,137.5z M135.6,162.2c-2.5-2.8-4-6.4-4-10.5
				c0-0.2,0-0.3,0-0.5c0.3,0,8,0.2,16.1-2.2c0.4,0.9,0.9,1.8,1.3,2.7c-0.2,0.1-0.4,0.1-0.6,0.2C139.9,154.5,135.6,162.1,135.6,162.2
				C135.6,162.1,135.6,162.2,135.6,162.2z M147.2,167.4c-3.7,0-7.1-1.3-9.8-3.4c-0.1,0-0.1-0.1-0.2-0.2c0.1,0.1,0.1,0.1,0.2,0.2
				s0.2,0.1,0.2,0.1s3-6.5,12.3-9.8h0.1c2.2,5.7,3.1,10.5,3.3,11.9C151.5,166.9,149.4,167.4,147.2,167.4z M156,164.7
				c-0.2-0.9-1-5.5-3-11.2c5.1-0.8,9.4,0.6,9.8,0.7C162,158.5,159.5,162.3,156,164.7z M152,151c-0.1-0.3-0.2-0.5-0.3-0.8
				c-0.3-0.8-0.7-1.5-1-2.3c6.2-2.5,8.7-6.2,8.7-6.2c2.2,2.7,3.5,6.1,3.6,9.8C162.7,151.5,157.4,150.3,152,151z"/>
		</g>
		<path class="st9" d="M147.2,191.3c-21.8,0-39.5-17.7-39.5-39.5s17.7-39.5,39.5-39.5c21.8,0,39.5,17.7,39.5,39.5
			S169,191.3,147.2,191.3z M147.2,115.3c-20.1,0-36.5,16.4-36.5,36.5s16.4,36.5,36.5,36.5s36.5-16.4,36.5-36.5
			S167.3,115.3,147.2,115.3z"/>
	</g>
	<g id="Facebook_6_">
		<path class="st10" d="M19.2,190.3c-21.8,0-39.5-17.7-39.5-39.5s17.7-39.5,39.5-39.5s39.5,17.7,39.5,39.5S41,190.3,19.2,190.3z
			 M19.2,114.3c-20.1,0-36.5,16.4-36.5,36.5s16.4,36.5,36.5,36.5s36.5-16.4,36.5-36.5S39.3,114.3,19.2,114.3z"/>
		<path id="Facebook_1_" class="st10" d="M37.3,166.4c0,1.1-0.9,2-2,2h-9.4v-14.2h4.8l0.7-5.5h-5.5v-3.5c0-1.6,0.4-2.7,2.7-2.7h2.9
			v-5c-0.5-0.1-2.2-0.2-4.3-0.2c-4.2,0-7.1,2.6-7.1,7.3v4.1h-4.8v5.5h4.8v14.2H2.5c-1.1,0-2-0.9-2-2v-32.7c0-1.1,0.9-2,2-2h32.7
			c1.1,0,2,0.9,2,2L37.3,166.4L37.3,166.4z"/>
	</g>
	<g id="Google_x2B__5_">
		<path class="st11" d="M-110.8,190.3c-21.8,0-39.5-17.7-39.5-39.5s17.7-39.5,39.5-39.5s39.5,17.7,39.5,39.5S-89,190.3-110.8,190.3z
			 M-110.8,114.3c-20.1,0-36.5,16.4-36.5,36.5s16.4,36.5,36.5,36.5s36.5-16.4,36.5-36.5S-90.7,114.3-110.8,114.3z"/>
		<path class="st11" d="M-118.5,147.9v5.1c0,0,4.9,0,6.9,0c-1.1,3.3-2.8,5.1-6.9,5.1c-4.2,0-7.5-3.4-7.5-7.6s3.3-7.6,7.5-7.6
			c2.2,0,3.7,0.8,5,1.9c1.1-1.1,1-1.2,3.6-3.7c-2.3-2.1-5.3-3.3-8.6-3.3c-7.1,0-12.8,5.7-12.8,12.8c0,7.1,5.7,12.8,12.8,12.8
			c10.6,0,13.2-9.2,12.3-15.4L-118.5,147.9L-118.5,147.9z"/>
		<polygon class="st11" points="-95.4,148.2 -95.4,143.7 -98.5,143.7 -98.5,148.2 -103.1,148.2 -103.1,151.4 -98.5,151.4 
			-98.5,155.9 -95.4,155.9 -95.4,151.4 -90.9,151.4 -90.9,148.2 		"/>
	</g>
</g>
<g id="_x30_1-SINGLE-GREY">
	<path id="Vimeo" class="st2" d="M803.2,7c-5.1-0.2-8.5,2.7-10.4,8.5c0.9-0.4,1.8-0.6,2.7-0.6c1.9,0,2.7,1,2.5,3.1
		c-0.1,1.3-0.9,3.1-2.5,5.5c-1.5,2.4-2.7,3.6-3.5,3.6c-1,0-1.9-1.8-2.7-5.5c-0.3-1.1-0.8-3.8-1.5-8.3c-0.7-4.1-2.4-6-5.3-5.8
		c-1.2,0.1-3,1.2-5.4,3.3c-1.8,1.6-3.5,3.1-5.3,4.7l1.7,2.2c1.6-1.1,2.6-1.7,2.9-1.7c1.3,0,2.4,2,3.5,5.9c1,3.6,2,7.2,3,10.7
		c1.5,3.9,3.3,5.8,5.4,5.8c3.5,0,7.7-3.2,12.7-9.6c4.8-6.1,7.3-10.9,7.5-14.5C808.8,9.6,807,7.2,803.2,7z"/>
	<path id="Instagram" class="st2" d="M675.2,4.1h-27.9c-2.4,0-4.4,1.9-4.4,4.3v28c0,2.4,2,4.3,4.4,4.3h27.9c2.4,0,4.4-1.9,4.4-4.3
		v-28C679.5,6.1,677.6,4.1,675.2,4.1z M669.2,9.9c0-0.6,0.5-1.1,1.1-1.1h3.4c0.6,0,1.1,0.5,1.1,1.1v3.4c0,0.6-0.5,1.1-1.1,1.1h-3.4
		c-0.6,0-1.1-0.5-1.1-1.1V9.9z M661.2,15.5c3.9,0,7.1,3.1,7.1,7s-3.2,7-7.1,7c-3.9,0-7-3.1-7-7S657.3,15.5,661.2,15.5z M676.1,36.2
		c0,0.6-0.5,1.1-1.1,1.1h-27.5c-0.6,0-1.1-0.5-1.1-1.1V19h4.6c-0.6,0.9-0.8,2.5-0.8,3.5c0,6.1,5,11.1,11.2,11.1s11.2-5,11.2-11.1
		c0-1-0.1-2.6-0.9-3.5h4.6v17.2H676.1z"/>
	<path id="Twitter" class="st2" d="M550.5,7.3c-1.5,0.9-3.1,1.6-4.9,1.9c-1.4-1.5-3.4-2.5-5.6-2.5c-4.2,0-7.7,3.5-7.7,7.9
		c0,0.6,0.1,1.2,0.2,1.8c-6.4-0.3-12-3.5-15.8-8.2c-0.7,1.2-1,2.5-1,4c0,2.7,1.4,5.1,3.4,6.6c-1.3,0-2.4-0.4-3.5-1v0.1
		c0,3.8,2.6,7,6.2,7.7c-0.6,0.2-1.3,0.3-2,0.3c-0.5,0-1,0-1.4-0.1c1,3.1,3.8,5.4,7.2,5.5c-2.6,2.1-5.9,3.4-9.5,3.4
		c-0.6,0-1.2,0-1.8-0.1c3.4,2.2,7.4,3.5,11.8,3.5c14.1,0,21.9-12,21.9-22.4c0-0.3,0-0.7,0-1c1.5-1.1,2.8-2.5,3.8-4.1
		c-1.4,0.6-2.9,1.1-4.4,1.2C548.7,10.7,549.9,9.2,550.5,7.3z"/>
	<g id="LinkedIn">
		<rect x="387.4" y="16.8" class="st2" width="7.2" height="22.8"/>
		<path class="st2" d="M414.2,16.6c-4.1,0-6.7,2.2-7.2,3.8v-3.6h-8.1c0.1,1.9,0,22.8,0,22.8h8.1V27.3c0-0.7,0-1.4,0.2-1.9
			c0.6-1.4,1.7-2.8,3.9-2.8c2.8,0,4.1,2.1,4.1,5.2v11.8h8.2V26.9C423.3,19.9,419.3,16.6,414.2,16.6z"/>
		<path class="st2" d="M390.8,6.1c-2.7,0-4.4,1.7-4.4,4c0,2.2,1.7,3.9,4.3,3.9h0.1c2.7,0,4.4-1.7,4.4-4
			C395.1,7.8,393.5,6.1,390.8,6.1z"/>
	</g>
	<g id="Behance">
		<path class="st2" d="M272.5,21.5c0.8-0.4,1.3-0.8,1.7-1.3c0.7-0.8,1-1.9,1-3.3c0-1.3-0.3-2.5-1-3.4c-1.2-1.5-3.1-2.3-5.9-2.4
			h-10.9v22.3h10.2c1.2,0,2.2-0.1,3.2-0.3s1.8-0.6,2.6-1.1c0.6-0.5,1.2-1.1,1.6-1.8c0.7-1,1-2.2,1-3.6c0-1.3-0.3-2.4-0.9-3.3
			C274.5,22.6,273.7,21.9,272.5,21.5z M262,15.1h4.9c1.1,0,2,0.1,2.7,0.3c0.8,0.3,1.2,1,1.2,2.1c0,0.9-0.3,1.6-0.9,2
			c-0.6,0.4-1.4,0.6-2.4,0.6H262V15.1z M269.8,29.2c-0.5,0.3-1.3,0.4-2.3,0.4H262v-6h5.6c1,0,1.7,0.1,2.3,0.4c1,0.4,1.4,1.2,1.4,2.4
			C271.2,27.8,270.7,28.8,269.8,29.2z"/>
		<rect x="280.9" y="12.2" class="st2" width="9.7" height="2.8"/>
		<path class="st2" d="M292.6,19.8c-0.8-1.1-1.7-1.9-2.9-2.4s-2.5-0.8-3.9-0.8c-2.5,0-4.4,0.8-6,2.3c-1.5,1.5-2.3,3.7-2.3,6.6
			c0,3.1,0.8,5.3,2.6,6.6c1.7,1.4,3.7,2,5.9,2c2.7,0,4.8-0.8,6.3-2.4c1-1,1.5-2,1.6-3h-4.5c-0.3,0.5-0.6,0.9-0.9,1.1
			c-0.6,0.5-1.4,0.8-2.4,0.8c-0.9,0-1.7-0.2-2.4-0.6c-1.1-0.7-1.7-1.8-1.8-3.5h12.2c0-1.4,0-2.5-0.1-3.3
			C293.7,21.9,293.3,20.8,292.6,19.8z M282,23.6c0.2-1.1,0.5-1.9,1.2-2.6c0.6-0.6,1.5-0.9,2.6-0.9c1,0,1.9,0.3,2.6,0.9
			c0.7,0.6,1.1,1.5,1.2,2.6H282z"/>
	</g>
	<path id="Dribbble" class="st2" d="M164.1,15.3c-0.5-1.1-1-2.1-1.7-3.1s-1.4-1.9-2.2-2.7c-0.8-0.8-1.7-1.6-2.7-2.2
		c-1-0.7-2-1.2-3.1-1.7s-2.3-0.8-3.4-1.1c-1.2-0.2-2.4-0.4-3.7-0.4c-1.2,0-2.5,0.1-3.7,0.4c-1.2,0.2-2.3,0.6-3.4,1.1s-2.1,1-3.1,1.7
		s-1.9,1.4-2.7,2.2c-0.8,0.8-1.6,1.7-2.2,2.7c-0.7,1-1.2,2-1.7,3.1s-0.8,2.3-1.1,3.4c-0.2,1.2-0.4,2.4-0.4,3.7
		c0,1.2,0.1,2.5,0.4,3.7c0.2,1.2,0.6,2.3,1.1,3.4c0.5,1.1,1,2.1,1.7,3.1s1.4,1.9,2.2,2.7c0.8,0.8,1.7,1.6,2.7,2.2
		c1,0.7,2,1.2,3.1,1.7s2.3,0.8,3.4,1.1c1.2,0.3,2.4,0.4,3.7,0.4c1.2,0,2.5-0.1,3.7-0.4c1.2-0.2,2.3-0.6,3.4-1.1s2.1-1,3.1-1.7
		s1.9-1.4,2.7-2.2c0.8-0.8,1.6-1.7,2.2-2.7c0.7-1,1.2-2,1.7-3.1s0.8-2.3,1.1-3.4c0.2-1.2,0.4-2.4,0.4-3.7c0-1.2-0.1-2.5-0.4-3.7
		C164.9,17.6,164.6,16.4,164.1,15.3z M147.2,6.8c4,0,7.6,1.5,10.3,3.9c0,0.1-2.3,3.5-8.2,5.7c-2.7-4.9-5.6-8.8-5.9-9.1
		C144.7,7,146,6.8,147.2,6.8z M143.5,7.2C143.5,7.3,143.5,7.3,143.5,7.2C143.5,7.3,143.5,7.3,143.5,7.2
		C143.4,7.3,143.5,7.3,143.5,7.2z M140.5,8.3c0.2,0.3,3.1,4.2,5.8,9c-7.5,2-14,1.9-14.5,1.9C132.9,14.4,136.2,10.4,140.5,8.3z
		 M135.6,32.9c-2.5-2.8-4-6.4-4-10.5c0-0.2,0-0.3,0-0.5c0.3,0,8,0.2,16.1-2.2c0.4,0.9,0.9,1.8,1.3,2.7c-0.2,0.1-0.4,0.1-0.6,0.2
		C139.9,25.3,135.6,32.9,135.6,32.9L135.6,32.9z M147.2,38.1c-3.7,0-7.1-1.3-9.8-3.4c-0.1,0-0.1-0.1-0.2-0.2
		c0.1,0.1,0.1,0.1,0.2,0.2c0.1,0.1,0.2,0.1,0.2,0.1s3-6.5,12.3-9.8h0.1c2.2,5.7,3.1,10.5,3.3,11.9C151.5,37.7,149.4,38.1,147.2,38.1
		z M156,35.4c-0.2-0.9-1-5.5-3-11.2c5.1-0.8,9.4,0.6,9.8,0.7C162,29.3,159.5,33.1,156,35.4z M152,21.8c-0.1-0.3-0.2-0.5-0.3-0.8
		c-0.3-0.8-0.7-1.5-1-2.3c6.2-2.5,8.7-6.2,8.7-6.2c2.2,2.7,3.5,6.1,3.6,9.8C162.7,22.2,157.4,21.1,152,21.8z"/>
	<path id="Facebook" class="st2" d="M36.8,38.6c0,1.1-0.9,2-2,2h-9.4V26.4h4.8l0.7-5.5h-5.5v-3.5c0-1.6,0.4-2.7,2.7-2.7H31v-5
		c-0.5-0.1-2.2-0.2-4.3-0.2c-4.2,0-7.1,2.6-7.1,7.3v4.1h-4.8v5.5h4.8v14.2H2c-1.1,0-2-0.9-2-2V6c0-1.1,0.9-2,2-2h32.7
		c1.1,0,2,0.9,2,2L36.8,38.6L36.8,38.6z"/>
	<g id="Google_x2B_">
		<path class="st2" d="M-118.5,20.2v5.1c0,0,4.9,0,6.9,0c-1.1,3.3-2.8,5.1-6.9,5.1c-4.2,0-7.5-3.4-7.5-7.6s3.3-7.6,7.5-7.6
			c2.2,0,3.7,0.8,5,1.9c1.1-1.1,1-1.2,3.6-3.7c-2.3-2.1-5.3-3.3-8.6-3.3c-7.1,0-12.8,5.7-12.8,12.8s5.7,12.8,12.8,12.8
			c10.6,0,13.2-9.2,12.3-15.4h-12.3V20.2z"/>
		<polygon class="st2" points="-95.4,20.5 -95.4,16 -98.5,16 -98.5,20.5 -103.1,20.5 -103.1,23.6 -98.5,23.6 -98.5,28.2 -95.4,28.2 
			-95.4,23.6 -90.9,23.6 -90.9,20.5 		"/>
	</g>
</g>
</svg>
